<?xml version="1.0" encoding="utf-8"?>
<!-- Generator: Adobe Illustrator 22.0.1, SVG Export Plug-In . SVG Version: 6.00 Build 0)  -->
<svg version="1.1" id="Capa_5" xmlns="http://www.w3.org/2000/svg" xmlns:xlink="http://www.w3.org/1999/xlink" x="0px" y="0px"
	 viewBox="0 0 461.9 459.3" style="enable-background:new 0 0 461.9 459.3;" xml:space="preserve">
<style type="text/css">
	.st0{fill:#FFFFFF;}
	.st1{enable-background:new    ;}
</style>
<g>
	<g>
		<path class="st0" d="M172,396.2c-3.1,1.6-0.7,5.1,1,6.8c2.4,2.4,5.7,4,9.1,4.7c8.2,1.5,16-1.9,22.4-6.8c7.3-5.6,13-13.2,20.9-18
			c8-4.9,17.6-6.2,26.8-5.2c-0.3-2.3-0.6-4.7-1-7c-7.2,1.9-15.1,5.4-20.2,10.9c-5.4,5.8-3,14.1,3.3,18.1c6.6,4.3,16.4,3.6,23.9,3.2
			c9.1-0.5,18.3-1.8,27.2-3.7c4.6-0.9,3.6-8.9-1.1-8.3c-13.3,1.8-27.1,5-40.6,3.7c-3.9-0.4-11.3-3.7-6.7-8.3
			c4.2-4.2,10.5-7,16.1-8.7c4-1.2,3-6.7-1-7c-7.8-0.6-15.7,0.3-22.9,3.2c-7.4,3-13.2,8.1-18.7,13.8c-5.3,5.5-10.7,11.6-18,14.5
			c-3.2,1.3-6.7,1.8-10.1,1.2c-1.8-0.3-3.5-0.8-5.1-1.6c-0.3-0.1-4.3-2.8-3.8-3.4C174.7,397.2,173.3,395.5,172,396.2L172,396.2z"/>
	</g>
</g>
<g>
	<g>
		<g>
			<path class="st0" d="M202.6,98.4c-6.7,10.5-11.1,23.9-4.5,35.5c5.7,10.1,17.1,16,28.5,16.4c11.7,0.4,22.9-5.5,30.1-14.7
				c7.8-10,10.2-23.2,7.3-35.5c-3-12.4-12-24.8-25.5-26.4c-12.5-1.5-24.2,7-30.5,17.1c-7,11.4-7.8,27.3,2.2,37.2
				c9.8,9.7,25.4,9,35.5,0.3c5.2-4.4,8.6-11,8.7-17.9c0.2-7.5-4.3-14-11.5-16.4c-13.3-4.6-30.5,5-31.1,19.6
				c-0.2,5.9,9.6,7.5,10.6,1.4c1.2-7.1,8.2-12.2,15.5-10.9c1.6,0.3,3.2,0.9,4.3,2.2c0.8,1,1.1,2.5,1.1,3.8c0,1.5-0.4,3.2-0.9,4.5
				c-0.8,2-2,3.5-3.5,5c-5.9,5.7-15.7,6.6-21.5,0.2c-6.1-6.7-4.3-16.7,0.2-23.8c4.2-6.7,12.1-12.7,20.2-11.8
				c8.5,0.9,14.1,10.2,16.5,17.7c2.8,8.9,2,18.8-3,26.8c-4.5,7.3-12,12.7-20.5,14c-9.6,1.5-20.2-2.3-26.2-10
				c-7.6-9.8-3.9-22.5,1.6-32.4C207.5,98.1,204,96.2,202.6,98.4L202.6,98.4z"/>
		</g>
		<g>
			<path class="st0" d="M196.9,96.5c-0.4-2.2-2.4-3.9-3.7-5.5s-2.8-4.2-4.7-5.1c-3.7-1.7-7.4,1.8-5.5,5.5c1,1.9,3.5,3.3,5.2,4.6
				s3.5,3.2,5.6,3.6C195.7,100,197.3,98.5,196.9,96.5L196.9,96.5z"/>
		</g>
		<g>
			<path class="st0" d="M225.7,70.4c0-3.9,0.9-8.6-0.7-12.2c-1.7-3.7-6.9-2.2-8,1.1c-1.2,3.5,0.9,8.6,2,12
				C220,75,225.7,74.5,225.7,70.4L225.7,70.4z"/>
		</g>
		<g>
			<path class="st0" d="M264.9,79.1c2.3-1.2,4.4-2.6,6.6-4c2.4-1.5,4.9-2.6,6.6-4.9c2.3-3.1-1.5-6.9-4.7-6.1c-2.7,0.7-5,3.2-7.1,5
				s-3.9,3.7-5.5,6C258.9,77.6,262.5,80.3,264.9,79.1L264.9,79.1z"/>
		</g>
		<g>
			<path class="st0" d="M270.4,129.9c3.1,2.3,7,3.7,10.5,5.2c2.5,1.1,5.3,0.5,6.5-2.2c1.1-2.5-0.3-5.4-2.9-6.1
				c-4-1.2-8.2-2.7-12.4-3C268.4,123.6,268,128.2,270.4,129.9L270.4,129.9z"/>
		</g>
		<g>
			<path class="st0" d="M255.1,150.4c-0.6,2.2,0.3,4.3,0.9,6.4c0.6,2.2,0.8,4.5,1.9,6.5c2.2,3.8,7.7,1.9,7.9-2.2
				c0.2-2.6-1.2-5.2-2.3-7.5c-1.1-2.2-2.4-4.3-4.8-5.2C257.2,147.8,255.5,149,255.1,150.4L255.1,150.4z"/>
		</g>
		<g>
			<path class="st0" d="M205.9,156.6c-0.7,1.2-1.1,2.6-1.8,3.8s-1.5,2.2-2.5,3.2c-3.3,3.4,1.8,8.4,5.1,5.1c3-2.9,5.1-8.2,3.1-12.2
				C208.9,155,206.7,155.2,205.9,156.6L205.9,156.6z"/>
		</g>
		<g>
			<path class="st0" d="M181.9,134.2c-2.6,0.5-5.4,0.9-7.9,1.8c-2,0.7-3.4,2.7-2.8,4.9c0.6,2.3,2.8,3.2,4.9,2.8
				c2.6-0.5,5.2-1.6,7.7-2.4C188.4,139.9,186.6,133.3,181.9,134.2L181.9,134.2z"/>
		</g>
	</g>
</g>
<g>
	<g class="st1">
		<path class="st0" d="M73,181.3c2.8,0,5.4,2.4,5.4,6.8v0.3c-0.1,0.6-0.1,1.4-0.3,2c-0.1,0.5-0.1,0.7-0.1,0.8c0,0.2,0.6,0.7,1.5,1.3
			c2.1,1.3,4.9,2.5,8.3,3.7c5.6,1.8,13.5,5.5,23.8,11l3.4,1.8c8.7,4.5,14,9,16.2,13.3c0.9,1.8,1.4,3.6,1.4,5.5
			c0,2.2-0.6,4.5-1.9,6.9c-2,3.7-5.1,7-9.3,9.8c-6.6,4.4-15.6,8-27.1,10.9c-1,0.3-2.8,0.7-5.2,1.3l-1.7,0.4l-0.3,0.3v1.2
			c0,0.7-0.2,1.2-0.6,1.4c-1.7,1.1-3.2,1.7-4.8,1.7c-1,0-2.4-0.3-4.3-1c-1.8-0.6-3.3-0.9-4.3-1c-0.3-0.1-1.2-0.1-2.3-0.1
			c-6.6-0.2-10.6-1.3-12.1-3.3c-0.6-0.9-0.9-1.8-0.9-3c0-0.7,0.1-1.4,0.3-2.3c0.7-2.5,2.9-3.7,7-3.7c1.1,0,2.6,0.1,4.7,0.4h0.4
			c0.2,0.1,0.3,0.1,0.4,0.1l0.5-0.5c-1.3-10.9-2.5-20.5-3.7-28.9c-0.1-0.5-0.2-1.9-0.2-4.1c0-7.1-0.5-11.2-1.7-11.8
			c-0.7-0.4-2.8-0.8-6-1.3c-9.4-1.4-14.5-3.1-14.5-8.1v-0.3c0.3-3.9,2.5-5.9,6.8-5.9c2,0,5,0.6,9.1,1.7c1.8,0.5,3.1,0.7,3.7,0.9
			l0.6-0.5c0.2-4.3,3.4-7.8,7.5-7.8H73z M77.1,206c0,4.1,0.5,10.4,1.6,18.7l0.7,6.3c0,0.5,0.1,1.3,0.1,2.6c0.5,7.3,1.5,11.7,3,12.9
			c10.3-2,18.5-4.2,24.4-6.9l1.1-0.5c7.1-3,10.9-6.2,11.2-9.4v-0.4c0-4.8-5.9-10.1-17.1-15.5l-3.2-1.6c-8.9-4.4-15.4-6.7-19.6-6.7
			C78.6,205.8,77.8,205.9,77.1,206z"/>
		<path class="st0" d="M159,230.1c0.5,1.7,0.7,3.2,0.7,4.6c0,4.2-2,7.6-5.9,10.2c-0.6,0.5-1.5,0.9-2.6,1.2c-2.4,0.9-3,1-3,2v0.1
			c0.1,0.6,0.5,1.3,1.4,2.3c1.9,2.1,4,3,6.5,3c0.7,0,1.4-0.1,2.2-0.2c3.1-0.7,6.3-2.9,9.4-6.6c4.2-4.9,6.8-7.8,7.9-8.6
			c2-1.4,3.5-2.1,4.4-2.1c1,0,1.5,0.7,1.5,2.2c-1.3,9-11.8,20.8-20.8,23.9c-1.6,0.3-3.2,0.5-4.8,0.5c-7.9,0-15.1-4.5-21.7-13.3
			c-2.3-3-3.4-7.2-3.4-12.5c0-2.2,0.2-4.7,0.6-7.4c0.7-4.8,4.5-7.9,11.4-9.4c0.9-0.2,1.8-0.3,2.8-0.3
			C150.6,219.5,155.4,222.8,159,230.1z M144.2,228.8c-2.1,0-3.4,1.9-3.4,5.1c0,3.6,1,6,2.8,7.4c3.4,0,5.7-2.6,6-5.9
			c0.1-0.3,0.1-0.5,0.1-0.8c0-2.6-1.4-5.3-4.8-5.8H144.2z"/>
		<path class="st0" d="M210.7,236.5c0,7.6-10.1,18.2-20.1,20.1c-1.8,0.3-2.5,0.6-2.9,1.3h-0.1c-0.1,0.1-0.1,0.7-0.1,1.6
			c0,0.5,0,0.9,0.1,1.6c0.1,1.6,0.2,2.8,0.2,3.9v1.4c0,1.7,0.5,9,1.1,14.3c0.1,0.4,0.1,0.6,0.1,0.9c0,2.1-1.3,3.7-4.1,3.7
			c-3.5,0-5.7-1.6-7-10c-0.3-2.4-0.5-5.7-0.5-6.7v-4.1c-0.3-11.2-1.7-16.2-1.7-23c0-7.1,0.2-11.8,0-14.3c0.2-3.3,0.7-5.5,1.7-6.7
			c0.7-0.9-0.6-1.2,2.2-1.2h1.1c11,0,25.6,5.1,29,13.2C210.4,233.9,210.7,235.1,210.7,236.5z M199.4,235.5c0-1.1-0.5-2.2-1-2.8
			c-1.3-1.6-4.4-2.3-6.8-2.8c-1.1-0.2-1.9-0.3-2.7-0.3s-1.4,0.1-2.1,0.4h0.2c-0.2,0.4-0.5,2-0.5,4.3c0,1.7,0.1,4,0.3,6.7
			c0.2,2.6,0.3,4.3,0.3,5.5v0.5c5.2-0.6,11.1-4.9,12-10.5C199.4,236.2,199.4,235.9,199.4,235.5z"/>
		<path class="st0" d="M233.8,219.5c8.6,0,14.1,7,14.1,17.8c0,12.7-7.6,25.1-19.1,25.1c-1.1,0-2.3-0.1-3.5-0.3
			c-9-1.8-11.9-11.4-11.9-19.9c0-1.1,0.1-2.2,0.1-3.3c0.9-11.7,8.6-19.3,19.6-19.3H233.8z M225.2,235.2c-1,1.8-1.5,4-1.5,6.4v0.6
			c0.1,5.5,2.6,9.5,5.5,9.5c3.3,0,8-4.9,8.5-11.9c0.1-0.6,0.1-1,0.1-1.5c0-2.9-0.6-5.4-2.1-7.6c-0.8-1.2-1.8-1.9-3.2-1.9
			C229.4,228.8,225.5,232.5,225.2,235.2z"/>
		<path class="st0" d="M283.7,218.3c3,0,6.7,2.7,6.7,5.1c0,0.3-0.1,0.6-0.2,0.9c-11.1,5.6-19.2,16-22.3,30.3
			c-1.2,5.2-2.8,7.8-4.9,7.8c-0.9,0-1.9-0.5-3-1.5c-5.5-4.9-8.2-20.1-8.2-30.7c0.5-2.2,1.3-3.7,2.5-4.5c0.5-0.3,1.1-0.5,1.6-0.5
			c0.6,0,1.3,0.2,1.9,0.6c2.9,1.8,4.6,6,5.1,12.7C265.1,230.4,275.2,218.3,283.7,218.3L283.7,218.3z"/>
		<path class="st0" d="M308.2,186.4c0.4,0,0.6,0.1,1.3,0.7c0.8,0.9,1.4,4.3,1.4,9.3c0,2.9-0.2,6.6-0.5,10.8
			c-0.5,5.6-0.5,6.1-0.5,9.3v4.8c0,0.3,1.2,0.6,3,0.6c0.3,0,0.7,0,1.2-0.1h-0.1c2.6-0.1,5.7-0.6,9.4-1.3h0.1l1.1-0.3
			c2.4-0.6,4-0.9,5.1-0.9c1.7,0,2.6,0.4,3.3,1.8c0.3,0.7,0.6,1.7,0.6,2.5c0,0.6-0.1,1.4-0.3,1.7c-2.2,4.5-9,5-20.3,5.9l-1.6,0.1H311
			c-0.1,0.3-0.1,0.8-0.2,1.6c-0.2,2.4-0.2,4-0.2,5.3v1.3c0.3,2.9,0.5,6.6,0.6,11v1.8c0,6-0.7,9.6-1.2,9.8h-0.3
			c-0.1,0.3-0.2,0.2-1.6,0.2c-3.3,0-4.4,0-4.8-0.4c-2-2-3.2-7.1-3.2-14.5c0-2.3,0.1-4.8,0.3-7.5c0.1-0.6,0.1-1,0.1-1.5
			c0-4.5-1.3-6.2-7.1-6.2h-0.7c-0.5,0.1-0.8,0.1-1.1,0.1c-3.5,0-5.9-0.3-7.6-4.5h0.1v-0.3c0-1.1,0.4-2,0.9-2.5
			c1.6-1.7,4.1-2.4,7.9-2.4c0.9,0,1.6,0.1,2.3,0.1c0.5,0.1,1,0.1,1.4,0.1c1.1,0,2.4-0.3,3.2-0.6h0.3c-0.3-3.5-0.5-7-0.5-10.5
			c0-2.6,0.1-5.3,0.3-7.8c0.6-7.9,2.2-13.3,4.3-15.7c1.3-1.4,2.4-1.9,3.7-1.9H308.2z"/>
		<path class="st0" d="M355.6,230.1c0.5,1.7,0.7,3.2,0.7,4.6c0,4.2-2,7.6-5.9,10.2c-0.6,0.5-1.5,0.9-2.6,1.2c-2.4,0.9-3,1-3,2v0.1
			c0.1,0.6,0.5,1.3,1.4,2.3c1.9,2.1,4,3,6.5,3c0.7,0,1.4-0.1,2.2-0.2c3.1-0.7,6.3-2.9,9.4-6.6c4.2-4.9,6.8-7.8,7.9-8.6
			c2-1.4,3.5-2.1,4.4-2.1c1,0,1.5,0.7,1.5,2.2c-1.3,9-11.8,20.8-20.8,23.9c-1.6,0.3-3.2,0.5-4.8,0.5c-7.9,0-15.1-4.5-21.7-13.3
			c-2.3-3-3.4-7.2-3.4-12.5c0-2.2,0.2-4.7,0.6-7.4c0.7-4.8,4.5-7.9,11.4-9.4c0.9-0.2,1.8-0.3,2.8-0.3
			C347.3,219.5,352.1,222.8,355.6,230.1z M340.9,228.8c-2.1,0-3.5,1.9-3.5,5.1c0,3.6,1,6,2.8,7.4c3.5,0,5.7-2.6,6-5.9
			c0.1-0.3,0.1-0.5,0.1-0.8c0-2.6-1.4-5.3-4.8-5.8H340.9z"/>
		<path class="st0" d="M391.9,219.5c3.1,0,5.8,1.8,6.7,3.9c0.2,0.5,0.3,0.9,0.3,1.3c0,0.6-0.2,1.2-0.5,1.8c-0.7,1-2,1.8-3.9,2.2
			c-9.3,1.5-10.8,1.6-10.8,3.3c0,0.3,0.1,0.6,0.3,0.9l0.3,0.3c1.3,0.3,7.6,2.6,19.1,6.8c4.3,1.6,7.1,3.3,8.7,5.3
			c1,1.3,1.6,2.8,1.6,4.3c0,1.4-0.4,2.9-1.2,4.5c-1.8,3.4-9.5,6.5-18.1,7.7c-2.6,0.3-4.9,0.6-7,0.6c-3,0-9.2-0.2-10.5-3.6
			c-0.7-1.7-1-3.2-1-4.5c0-2.1,0.8-5,3.5-5c0.7,0,1.5,0.2,2.3,0.6c4,1.7,7.4,2.5,10.3,2.5c3.1,0,8.9-0.5,10.8-2.4
			c-11.9-5.7-30-9.5-30-16c-0.1-0.6-0.1-1.2-0.1-1.7c0-7.9,9.9-12.9,18.5-12.9H391.9z"/>
	</g>
	<g class="st1">
		<path class="st0" d="M111.4,321.9v-15.4c0-5.8,4.6-10.4,10.4-10.4h5.6v-13.9c0-1.4,1-2.4,2.4-2.4c1.3,0,2.4,1,2.4,2.4v47.7
			c0,1.4-1.1,2.4-2.4,2.4h-8C116,332.3,111.4,327.6,111.4,321.9z M116.2,306.5v15.4c0,3.1,2.5,5.6,5.6,5.6h5.6v-26.6h-5.6
			C118.7,300.9,116.2,303.4,116.2,306.5z"/>
		<path class="st0" d="M142.4,322.2v-16c0-5.8,4.6-10.4,10.4-10.4c5.8,0,10.4,4.6,10.4,10.4v8c0,1.4-1,2.4-2.4,2.4h-13.6v5.6
			c0,2.2,1.4,4.3,3.4,5.2s4.5,0.4,6.1-1.2c1-1,2.5-1,3.4,0c1,0.9,1,2.4,0,3.4c-3,3-7.4,3.8-11.4,2.2
			C144.9,330.2,142.4,326.4,142.4,322.2z M147.2,306.2v5.6c3.2,0,8.8,0,11.2,0c0-2.3,0-5.6,0-5.6c0-3.1-2.5-5.6-5.6-5.6
			S147.2,303.1,147.2,306.2z"/>
		<path class="st0" d="M185.5,298.9c-0.3-1.3,0.4-2.6,1.7-3c1.2-0.3,2.6,0.4,3,1.6c0,0,4.6,15.5,7.3,24.4c2.6-8.9,7.3-24.4,7.3-24.4
			c0.4-1.2,1.8-1.9,3-1.6c1.3,0.4,2,1.8,1.6,3l-9.6,32c-0.3,1-1.3,1.7-2.3,1.7s-2-0.7-2.3-1.7L185.5,298.9z"/>
		<path class="st0" d="M216,322.2v-16c0-5.8,4.6-10.4,10.4-10.4c5.8,0,10.4,4.6,10.4,10.4v8c0,1.4-1,2.4-2.4,2.4h-13.6v5.6
			c0,2.2,1.4,4.3,3.4,5.2s4.5,0.4,6.1-1.2c1-1,2.5-1,3.4,0c1,0.9,1,2.4,0,3.4c-3,3-7.4,3.8-11.4,2.2
			C218.5,330.2,216,326.4,216,322.2z M220.8,306.2v5.6c3.2,0,8.8,0,11.2,0c0-2.3,0-5.6,0-5.6c0-3.1-2.5-5.6-5.6-5.6
			S220.8,303.1,220.8,306.2z"/>
		<path class="st0" d="M246.4,330.2v-31.7c0-1.4,1-2.4,2.4-2.4h8c1.8,0,3.6,0.5,5.2,1.4c1.1,0.7,1.5,2.2,0.9,3.3
			c-0.6,1.2-2.2,1.6-3.3,0.9c-0.9-0.5-1.8-0.7-2.8-0.7h-5.6v29.3c0,1.4-1,2.4-2.4,2.4S246.4,331.6,246.4,330.2z"/>
		<path class="st0" d="M282.3,311.5V306c0-2.2-1.4-4.2-3.4-5c-2.1-0.8-4.4-0.4-5.9,1.2c-1,1-2.5,1-3.4,0c-1-1-1-2.5,0-3.4
			c3-3,7.4-3.8,11.2-2.2c3.8,1.6,6.3,5.3,6.3,9.4v23.8c0,1.4-1.1,2.4-2.4,2.4h-8c-5.8,0-10.4-4.6-10.4-10.4
			c0-5.8,4.6-10.4,10.4-10.4H282.3z M276.7,327.5h5.6v-11.2h-5.6c-3.1,0-5.6,2.5-5.6,5.6S273.6,327.5,276.7,327.5z"/>
		<path class="st0" d="M297.7,330.2v-31.7c0-1.4,1-2.4,2.4-2.4h8c5.7,0,10.4,4.6,10.4,10.4v23.7c0,1.4-1.1,2.4-2.4,2.4
			c-1.4,0-2.4-1-2.4-2.4v-23.7c0-3.1-2.6-5.6-5.6-5.6h-5.6v29.3c0,1.4-1.1,2.4-2.4,2.4C298.7,332.6,297.7,331.6,297.7,330.2z"/>
		<path class="st0" d="M328.1,322.2v-16c0-5.8,4.6-10.4,10.4-10.4c5.7,0,10.4,4.6,10.4,10.4v16c0,5.8-4.7,10.4-10.4,10.4
			C332.7,332.6,328.1,328,328.1,322.2z M332.9,306.2v16c0,3.1,2.5,5.6,5.6,5.6c3,0,5.6-2.5,5.6-5.6v-16c0-3.1-2.6-5.6-5.6-5.6
			C335.4,300.6,332.9,303.1,332.9,306.2z"/>
	</g>
</g>
</svg>
