<?xml version="1.0" encoding="utf-8"?>
<!-- Generator: Adobe Illustrator 22.0.1, SVG Export Plug-In . SVG Version: 6.00 Build 0)  -->
<svg version="1.1" id="Capa_6" xmlns="http://www.w3.org/2000/svg" xmlns:xlink="http://www.w3.org/1999/xlink" x="0px" y="0px"
	 viewBox="0 0 461.9 459.3" style="enable-background:new 0 0 461.9 459.3;" xml:space="preserve">
<style type="text/css">
	.st0{fill:#FFFFFF;}
	.st1{enable-background:new    ;}
</style>
<g>
	<g>
		<path class="st0" d="M172.3,389.2c-3.1,1.6-0.7,5.1,1,6.8c2.4,2.4,5.7,4,9.1,4.7c8.2,1.5,16-1.9,22.4-6.8c7.3-5.6,13-13.2,20.9-18
			c8-4.9,17.6-6.2,26.8-5.2c-0.3-2.3-0.6-4.7-1-7c-7.2,1.9-15.1,5.4-20.2,10.9c-5.4,5.8-3,14.1,3.3,18.1c6.6,4.3,16.4,3.6,23.9,3.2
			c9.1-0.5,18.3-1.8,27.2-3.7c4.6-0.9,3.6-8.9-1.1-8.3c-13.3,1.8-27.1,5-40.6,3.7c-3.9-0.4-11.3-3.7-6.7-8.3
			c4.2-4.2,10.5-7,16.1-8.7c4-1.2,3-6.7-1-7c-7.8-0.6-15.7,0.3-22.9,3.2c-7.4,3-13.2,8.1-18.7,13.8c-5.3,5.5-10.7,11.6-18,14.5
			c-3.2,1.3-6.7,1.8-10.1,1.2c-1.8-0.3-3.5-0.8-5.1-1.6c-0.3-0.1-4.3-2.8-3.8-3.4C175,390.2,173.6,388.5,172.3,389.2L172.3,389.2z"
			/>
	</g>
</g>
<g>
	<g>
		<g>
			<path class="st0" d="M202.9,100.4c-6.7,10.5-11.1,23.9-4.5,35.5c5.7,10.1,17.1,16,28.5,16.4c11.7,0.4,22.9-5.5,30.1-14.7
				c7.8-10,10.2-23.2,7.3-35.5c-3-12.4-12-24.8-25.5-26.4c-12.5-1.5-24.2,7-30.5,17.1c-7,11.4-7.8,27.3,2.2,37.2
				c9.8,9.7,25.4,9,35.5,0.3c5.2-4.4,8.6-11,8.7-17.9c0.2-7.5-4.3-14-11.5-16.4c-13.3-4.6-30.5,5-31.1,19.6
				c-0.2,5.9,9.6,7.5,10.6,1.4c1.2-7.1,8.2-12.2,15.5-10.9c1.6,0.3,3.2,0.9,4.3,2.2c0.8,1,1.1,2.5,1.1,3.8c0,1.5-0.4,3.2-0.9,4.5
				c-0.8,2-2,3.5-3.5,5c-5.9,5.7-15.7,6.6-21.5,0.2c-6.1-6.7-4.3-16.7,0.2-23.8c4.2-6.7,12.1-12.7,20.2-11.8
				c8.5,0.9,14.1,10.2,16.5,17.7c2.8,8.9,2,18.8-3,26.8c-4.5,7.3-12,12.7-20.5,14c-9.6,1.5-20.2-2.3-26.2-10
				c-7.6-9.8-3.9-22.5,1.6-32.4C207.8,100.1,204.3,98.2,202.9,100.4L202.9,100.4z"/>
		</g>
		<g>
			<path class="st0" d="M197.2,98.5c-0.4-2.2-2.4-3.9-3.7-5.5s-2.8-4.2-4.7-5.1c-3.7-1.7-7.4,1.8-5.5,5.5c1,1.9,3.5,3.3,5.2,4.6
				s3.5,3.2,5.6,3.6C196,102,197.6,100.5,197.2,98.5L197.2,98.5z"/>
		</g>
		<g>
			<path class="st0" d="M226,72.4c0-3.9,0.9-8.6-0.7-12.2c-1.7-3.7-6.9-2.2-8,1.1c-1.2,3.5,0.9,8.6,2,12C220.3,77,226,76.5,226,72.4
				L226,72.4z"/>
		</g>
		<g>
			<path class="st0" d="M265.2,81.1c2.3-1.2,4.4-2.6,6.6-4c2.4-1.5,4.9-2.6,6.6-4.9c2.3-3.1-1.5-6.9-4.7-6.1c-2.7,0.7-5,3.2-7.1,5
				s-3.9,3.7-5.5,6C259.2,79.6,262.8,82.3,265.2,81.1L265.2,81.1z"/>
		</g>
		<g>
			<path class="st0" d="M270.7,131.9c3.1,2.3,7,3.7,10.5,5.2c2.5,1.1,5.3,0.5,6.5-2.2c1.1-2.5-0.3-5.4-2.9-6.1
				c-4-1.2-8.2-2.7-12.4-3C268.7,125.6,268.3,130.2,270.7,131.9L270.7,131.9z"/>
		</g>
		<g>
			<path class="st0" d="M255.4,152.4c-0.6,2.2,0.3,4.3,0.9,6.4c0.6,2.2,0.8,4.5,1.9,6.5c2.2,3.8,7.7,1.9,7.9-2.2
				c0.2-2.6-1.2-5.2-2.3-7.5c-1.1-2.2-2.4-4.3-4.8-5.2C257.5,149.8,255.8,151,255.4,152.4L255.4,152.4z"/>
		</g>
		<g>
			<path class="st0" d="M206.2,158.6c-0.7,1.2-1.1,2.6-1.8,3.8s-1.5,2.2-2.5,3.2c-3.3,3.4,1.8,8.4,5.1,5.1c3-2.9,5.1-8.2,3.1-12.2
				C209.2,157,207,157.2,206.2,158.6L206.2,158.6z"/>
		</g>
		<g>
			<path class="st0" d="M182.2,136.2c-2.6,0.5-5.4,0.9-7.9,1.8c-2,0.7-3.4,2.7-2.8,4.9c0.6,2.3,2.8,3.2,4.9,2.8
				c2.6-0.5,5.2-1.6,7.7-2.4C188.7,141.9,186.9,135.3,182.2,136.2L182.2,136.2z"/>
		</g>
	</g>
</g>
<g>
	<g class="st1">
		<path class="st0" d="M149.2,175.5l0.1,4.2c0.1,8.9,0.3,15.5,0.6,20c0.5,7.2,0.7,13.1,0.7,17.7c0,1.7,0,3.3-0.1,4.7
			c-0.5,8.2-2.1,15.5-4.7,21.6c-3.3,7.4-8.6,11.4-14.8,11.4c-10.5,0-18.8-10.8-24.6-26.6l-0.4-1.1c-2.6-7.4-4-13.2-4-17.5
			c0-2.9,0.3-7.4,4.4-7.4c3.1,0,7.4,3.1,9,6.2c0.2,0.6,0.2,1,0.2,1.6c0,1.5-0.5,2.9-1.6,4.3c0.5,2.5,1.1,5.1,1.9,7.5
			c1.8,5.8,4.5,10.7,7.9,14.7h0.1l0.5,0.5c3,3.6,5.5,5.6,7.2,5.6c1,0,2-0.7,2.5-1.7c1.5-2.7,2.7-7.2,3.5-13.6l0.3-2
			c1.1-8.2,1.7-14.8,1.7-20c0-4.1-0.3-6.1-1.2-12c-0.9-6-1.3-11.3-1.3-15.8c0-4.8,0.5-8.6,1.6-11.4c1-2.5,2.2-3.6,4-3.6
			C146.8,162.9,149.1,167,149.2,175.5z"/>
		<path class="st0" d="M189,230.3c0.3,5.5,0.3,6.3,2.8,13.3c1.8,4.9,2.6,8.6,2.6,10.9c0,2.8-1.2,4.2-3.6,4.2c-1.7,0-3.2-0.6-4.7-1.9
			c-2.1-1.7-3.7-5.6-4.9-11.6c-0.3-1.8-0.6-3-0.8-3.8c-3.9,7.1-12.1,13.9-18.1,13.9c-4.8,0-7.8-4.3-7.8-13.1
			c0-9.2,4.3-28.3,10.8-28.5c2.4,0,3.7,1.3,3.7,5.5c0,3.2-0.7,7.7-2.1,13.7c-1,4.7-1.6,7.6-1.6,9.1c0,0.5,0.1,0.8,0.2,0.9
			c0.1,0,0.3-0.1,0.6-0.2c7.4-4.5,9.3-11.2,10.9-20.8c1-6.1,1.7-8.6,4.5-8.6C187.3,213.3,188.4,219.8,189,230.3z"/>
		<path class="st0" d="M220.7,223.1c0.5,1.7,0.7,3.2,0.7,4.6c0,4.2-2,7.6-5.9,10.2c-0.6,0.5-1.5,0.9-2.6,1.2c-2.4,0.9-3,1-3,2v0.1
			c0.1,0.6,0.5,1.3,1.4,2.3c1.9,2.1,4,3,6.5,3c0.7,0,1.4-0.1,2.2-0.2c3.1-0.7,6.3-2.9,9.4-6.6c4.2-4.9,6.8-7.8,7.9-8.6
			c2-1.4,3.5-2.1,4.4-2.1c1,0,1.5,0.7,1.5,2.2c-1.3,9-11.8,20.8-20.8,23.9c-1.6,0.3-3.2,0.5-4.8,0.5c-7.9,0-15.1-4.5-21.7-13.3
			c-2.3-3-3.4-7.2-3.4-12.5c0-2.2,0.2-4.7,0.6-7.4c0.7-4.8,4.5-7.9,11.4-9.4c0.9-0.2,1.8-0.3,2.8-0.3
			C212.4,212.5,217.2,215.8,220.7,223.1z M206,221.8c-2.1,0-3.4,1.9-3.4,5.1c0,3.6,1,6,2.8,7.4c3.4,0,5.7-2.6,6-5.9
			c0.1-0.3,0.1-0.5,0.1-0.8c0-2.6-1.4-5.3-4.8-5.8H206z"/>
		<path class="st0" d="M261.9,212.8c4.6,0,13.1,1.7,13.1,5.8v0.4l-0.3,0.2c-1,0.7-1.5,2.6-1.5,5.7c0,1.7,0.2,3.8,0.5,6.3
			c0.2,1.7,0.3,2.9,0.3,3.5l0.1,1.7c0.2,5.1,0.3,9.7,0.3,13.8c0,12.4-0.6,19.9-3.7,26.3c-2.4,4.9-5.8,7.9-10.2,8.9
			c-1,0.2-2,0.3-3,0.3c-4,0-7.7-1.4-11.2-4.1c-1.6-1.3-3-3-4.2-4.9c-0.6-1-1-1.9-1.5-2.5c-2.3-3.4-3.4-6.3-3.4-8.6
			c0-1.7,0.7-3,1.9-4.1c0.4-0.2,0.7-0.3,1-0.3c1.9,0,3.9,1.8,6,5.3c2.6,4.3,7.1,8.2,10.7,8.2c2.5,0,4.4-1.7,5.5-5.2
			c1.1-3.4,1.7-8.2,1.7-14.5c0-2.2-0.1-4.6-0.2-7.1c-0.2-3.6-0.3-6.7-0.3-9c0-0.9,0-1.6,0.1-2.3c-0.9,1-1.9,2.6-3.2,4.9
			c-3.2,5.2-6.3,8.3-9.5,9.3c-0.8,0.3-1.7,0.4-2.6,0.4c-5.5,0-10.2-5.3-11.1-11c-0.2-1.4-0.3-2.7-0.3-4c0-10.9,9.2-23.3,24.2-23.3
			H261.9z M249.4,228c-1.2,1.9-2.1,3.9-2.6,6.2c-0.2,0.9-0.3,1.7-0.3,2.5c0,1.6,0.5,2.8,1.4,3.5c0.1,0.1,0.2,0.1,0.3,0.1
			c1.9,0,6.3-5.2,13.1-15.7c0.9-1.5,1.5-2.4,1.7-2.6c-0.2-0.3-0.7-0.6-1.7-0.6C257.9,221.3,251.9,224.2,249.4,228z"/>
		<path class="st0" d="M299.2,212.5c8.6,0,14.1,7,14.1,17.8c0,12.7-7.6,25.1-19.1,25.1c-1.1,0-2.3-0.1-3.5-0.3
			c-9-1.8-11.9-11.4-11.9-19.9c0-1.1,0.1-2.2,0.1-3.3c0.9-11.7,8.6-19.3,19.6-19.3H299.2z M290.7,228.2c-1,1.8-1.5,4-1.5,6.4v0.6
			c0.1,5.5,2.6,9.5,5.5,9.5c3.3,0,8-4.9,8.5-11.9c0.1-0.6,0.1-1,0.1-1.5c0-2.9-0.6-5.4-2.1-7.6c-0.8-1.2-1.8-1.9-3.2-1.9
			C294.9,221.8,291,225.5,290.7,228.2z"/>
		<path class="st0" d="M337.7,212.5c3.1,0,5.8,1.8,6.7,3.9c0.2,0.5,0.3,0.9,0.3,1.3c0,0.6-0.2,1.2-0.5,1.8c-0.7,1-2,1.8-3.9,2.2
			c-9.3,1.5-10.8,1.6-10.8,3.3c0,0.3,0.1,0.6,0.3,0.9l0.3,0.3c1.3,0.3,7.6,2.6,19.1,6.8c4.3,1.6,7.1,3.3,8.7,5.3
			c1,1.3,1.6,2.8,1.6,4.3c0,1.4-0.4,2.9-1.2,4.5c-1.8,3.4-9.5,6.5-18.1,7.7c-2.6,0.3-4.9,0.6-7,0.6c-3,0-9.2-0.2-10.5-3.6
			c-0.7-1.7-1-3.2-1-4.5c0-2.1,0.8-5,3.4-5c0.7,0,1.5,0.2,2.3,0.6c4,1.7,7.4,2.5,10.3,2.5c3.1,0,8.9-0.5,10.8-2.4
			c-11.9-5.7-30-9.5-30-16c-0.1-0.6-0.1-1.2-0.1-1.7c0-7.9,9.9-12.9,18.5-12.9H337.7z"/>
	</g>
	<g class="st1">
		<path class="st0" d="M104.5,311.5V306c0-2.2-1.4-4.2-3.4-5c-2.1-0.8-4.4-0.4-5.9,1.2c-1,1-2.5,1-3.4,0c-1-1-1-2.5,0-3.4
			c3-3,7.4-3.8,11.2-2.2c3.8,1.6,6.3,5.3,6.3,9.4v23.8c0,1.4-1.1,2.4-2.4,2.4h-8c-5.8,0-10.4-4.6-10.4-10.4
			c0-5.8,4.6-10.4,10.4-10.4H104.5z M98.9,327.5h5.6v-11.2h-5.6c-3.1,0-5.6,2.5-5.6,5.6S95.8,327.5,98.9,327.5z"/>
		<path class="st0" d="M119.6,324.7v-42.5c0-1.4,1.1-2.4,2.4-2.4c1.4,0,2.4,1,2.4,2.4v42.5c0,1.4,0.8,2.7,2,3.4
			c1.2,0.6,1.6,2.2,0.9,3.3c-0.6,1.1-2.1,1.5-3.3,0.9C121.4,330.7,119.6,327.8,119.6,324.7z"/>
		<path class="st0" d="M164,311.5V306c0-2.2-1.4-4.2-3.4-5c-2.1-0.8-4.4-0.4-5.9,1.2c-1,1-2.5,1-3.4,0c-1-1-1-2.5,0-3.4
			c3-3,7.4-3.8,11.2-2.2c3.8,1.6,6.3,5.3,6.3,9.4v23.8c0,1.4-1.1,2.4-2.4,2.4h-8c-5.8,0-10.4-4.6-10.4-10.4
			c0-5.8,4.6-10.4,10.4-10.4H164z M158.4,327.5h5.6v-11.2h-5.6c-3.1,0-5.6,2.5-5.6,5.6S155.3,327.5,158.4,327.5z"/>
		<path class="st0" d="M178.6,286.2c0-1.8,1.4-3.2,3.2-3.2c1.8,0,3.2,1.4,3.2,3.2s-1.4,3.2-3.2,3.2C180,289.4,178.6,288,178.6,286.2
			z M181.8,332.6c-1.3,0-2.4-1-2.4-2.4v-32c0-1.4,1.1-2.4,2.4-2.4c1.4,0,2.4,1,2.4,2.4v32C184.2,331.6,183.2,332.6,181.8,332.6z"/>
		<path class="st0" d="M195.4,330.2v-31.7c0-1.4,1-2.4,2.4-2.4h8c1.8,0,3.6,0.5,5.2,1.4c1.1,0.7,1.5,2.2,0.9,3.3
			c-0.6,1.2-2.2,1.6-3.3,0.9c-0.9-0.5-1.8-0.7-2.8-0.7h-5.6v29.3c0,1.4-1,2.4-2.4,2.4C196.4,332.6,195.4,331.6,195.4,330.2z"/>
		<path class="st0" d="M218.4,322.2v-16c0-5.8,4.6-10.4,10.4-10.4c5.8,0,10.4,4.6,10.4,10.4v8c0,1.4-1,2.4-2.4,2.4h-13.6v5.6
			c0,2.2,1.4,4.3,3.4,5.2s4.5,0.4,6.1-1.2c1-1,2.5-1,3.4,0c1,0.9,1,2.4,0,3.4c-3,3-7.4,3.8-11.4,2.2
			C220.8,330.2,218.4,326.4,218.4,322.2z M223.2,306.2v5.6c3.2,0,8.8,0,11.2,0c0-2.3,0-5.6,0-5.6c0-3.1-2.5-5.6-5.6-5.6
			S223.2,303.1,223.2,306.2z"/>
		<path class="st0" d="M263.9,324.7v-42.5c0-1.4,1.1-2.4,2.4-2.4c1.4,0,2.4,1,2.4,2.4v42.5c0,1.4,0.8,2.7,2,3.4
			c1.2,0.6,1.6,2.2,0.9,3.3c-0.6,1.1-2.1,1.5-3.3,0.9C265.6,330.7,263.9,327.8,263.9,324.7z"/>
		<path class="st0" d="M279.3,286.2c0-1.8,1.4-3.2,3.2-3.2s3.2,1.4,3.2,3.2s-1.4,3.2-3.2,3.2S279.3,288,279.3,286.2z M282.5,332.6
			c-1.3,0-2.4-1-2.4-2.4v-32c0-1.4,1.1-2.4,2.4-2.4c1.4,0,2.4,1,2.4,2.4v32C284.9,331.6,283.9,332.6,282.5,332.6z"/>
		<path class="st0" d="M296.1,329.9v-47.7c0-1.4,1-2.4,2.4-2.4c1.3,0,2.4,1,2.4,2.4v13.9h5.6c5.7,0,10.4,4.6,10.4,10.4v15.4
			c0,5.8-4.7,10.4-10.4,10.4h-8C297.2,332.3,296.1,331.2,296.1,329.9z M300.9,300.9v26.6h5.6c3,0,5.6-2.5,5.6-5.6v-15.4
			c0-3.1-2.6-5.6-5.6-5.6H300.9z"/>
		<path class="st0" d="M327.2,330.2v-31.7c0-1.4,1-2.4,2.4-2.4h8c1.8,0,3.6,0.5,5.2,1.4c1.1,0.7,1.5,2.2,0.9,3.3
			c-0.6,1.2-2.2,1.6-3.3,0.9c-0.9-0.5-1.8-0.7-2.8-0.7H332v29.3c0,1.4-1,2.4-2.4,2.4S327.2,331.6,327.2,330.2z"/>
		<path class="st0" d="M350.1,322.2v-16c0-5.8,4.6-10.4,10.4-10.4c5.8,0,10.4,4.6,10.4,10.4v8c0,1.4-1,2.4-2.4,2.4h-13.6v5.6
			c0,2.2,1.4,4.3,3.4,5.2s4.5,0.4,6.1-1.2c1-1,2.5-1,3.4,0c1,0.9,1,2.4,0,3.4c-3,3-7.4,3.8-11.4,2.2
			C352.6,330.2,350.1,326.4,350.1,322.2z M354.9,306.2v5.6c3.2,0,8.8,0,11.2,0c0-2.3,0-5.6,0-5.6c0-3.1-2.5-5.6-5.6-5.6
			S354.9,303.1,354.9,306.2z"/>
	</g>
</g>
</svg>
