<?xml version="1.0" encoding="utf-8"?>
<!-- Generator: Adobe Illustrator 22.0.1, SVG Export Plug-In . SVG Version: 6.00 Build 0)  -->
<svg version="1.1" id="Capa_3" xmlns="http://www.w3.org/2000/svg" xmlns:xlink="http://www.w3.org/1999/xlink" x="0px" y="0px"
	 viewBox="0 0 461.9 459.3" style="enable-background:new 0 0 461.9 459.3;" xml:space="preserve">
<style type="text/css">
	.st0{fill:#FFFFFF;}
	.st1{enable-background:new    ;}
</style>
<g>
	<g>
		<path class="st0" d="M172.3,364.2c-3.1,1.6-0.7,5.1,1,6.8c2.4,2.4,5.7,4,9.1,4.7c8.2,1.5,16-1.9,22.4-6.8c7.3-5.6,13-13.2,20.9-18
			c8-4.9,17.6-6.2,26.8-5.2c-0.3-2.3-0.6-4.7-1-7c-7.2,1.9-15.1,5.4-20.2,10.9c-5.4,5.8-3,14.1,3.3,18.1c6.6,4.3,16.4,3.6,23.9,3.2
			c9.1-0.5,18.3-1.8,27.2-3.7c4.6-0.9,3.6-8.9-1.1-8.3c-13.3,1.8-27.1,5-40.6,3.7c-3.9-0.4-11.3-3.7-6.7-8.3
			c4.2-4.2,10.5-7,16.1-8.7c4-1.2,3-6.7-1-7c-7.8-0.6-15.7,0.3-22.9,3.2c-7.4,3-13.2,8.1-18.7,13.8c-5.3,5.5-10.7,11.6-18,14.5
			c-3.2,1.3-6.7,1.8-10.1,1.2c-1.8-0.3-3.5-0.8-5.1-1.6c-0.3-0.1-4.3-2.8-3.8-3.4C175,365.2,173.6,363.5,172.3,364.2L172.3,364.2z"
			/>
	</g>
</g>
<g>
	<g>
		<g>
			<path class="st0" d="M202.9,116.4c-6.7,10.5-11.1,23.9-4.5,35.5c5.7,10.1,17.1,16,28.5,16.4c11.7,0.4,22.9-5.5,30.1-14.7
				c7.8-10,10.2-23.2,7.3-35.5c-3-12.4-12-24.8-25.5-26.4c-12.5-1.5-24.2,7-30.5,17.1c-7,11.4-7.8,27.3,2.2,37.2
				c9.8,9.7,25.4,9,35.5,0.3c5.2-4.4,8.6-11,8.7-17.9c0.2-7.5-4.3-14-11.5-16.4c-13.3-4.6-30.5,5-31.1,19.6
				c-0.2,5.9,9.6,7.5,10.6,1.4c1.2-7.1,8.2-12.2,15.5-10.9c1.6,0.3,3.2,0.9,4.3,2.2c0.8,1,1.1,2.5,1.1,3.8c0,1.5-0.4,3.2-0.9,4.5
				c-0.8,2-2,3.5-3.5,5c-5.9,5.7-15.7,6.6-21.5,0.2c-6.1-6.7-4.3-16.7,0.2-23.8c4.2-6.7,12.1-12.7,20.2-11.8
				c8.5,0.9,14.1,10.2,16.5,17.7c2.8,8.9,2,18.8-3,26.8c-4.5,7.3-12,12.7-20.5,14c-9.6,1.5-20.2-2.3-26.2-10
				c-7.6-9.8-3.9-22.5,1.6-32.4C207.8,116.1,204.3,114.2,202.9,116.4L202.9,116.4z"/>
		</g>
		<g>
			<path class="st0" d="M197.2,114.5c-0.4-2.2-2.4-3.9-3.7-5.5s-2.8-4.2-4.7-5.1c-3.7-1.7-7.4,1.8-5.5,5.5c1,1.9,3.5,3.3,5.2,4.6
				s3.5,3.2,5.6,3.6C196,118,197.6,116.5,197.2,114.5L197.2,114.5z"/>
		</g>
		<g>
			<path class="st0" d="M226,88.4c0-3.9,0.9-8.6-0.7-12.2c-1.7-3.7-6.9-2.2-8,1.1c-1.2,3.5,0.9,8.6,2,12C220.3,93,226,92.5,226,88.4
				L226,88.4z"/>
		</g>
		<g>
			<path class="st0" d="M265.2,97.1c2.3-1.2,4.4-2.6,6.6-4c2.4-1.5,4.9-2.6,6.6-4.9c2.3-3.1-1.5-6.9-4.7-6.1c-2.7,0.7-5,3.2-7.1,5
				s-3.9,3.7-5.5,6C259.2,95.6,262.8,98.3,265.2,97.1L265.2,97.1z"/>
		</g>
		<g>
			<path class="st0" d="M270.7,147.9c3.1,2.3,7,3.7,10.5,5.2c2.5,1.1,5.3,0.5,6.5-2.2c1.1-2.5-0.3-5.4-2.9-6.1
				c-4-1.2-8.2-2.7-12.4-3C268.7,141.6,268.3,146.2,270.7,147.9L270.7,147.9z"/>
		</g>
		<g>
			<path class="st0" d="M255.4,168.4c-0.6,2.2,0.3,4.3,0.9,6.4c0.6,2.2,0.8,4.5,1.9,6.5c2.2,3.8,7.7,1.9,7.9-2.2
				c0.2-2.6-1.2-5.2-2.3-7.5c-1.1-2.2-2.4-4.3-4.8-5.2C257.5,165.8,255.8,167,255.4,168.4L255.4,168.4z"/>
		</g>
		<g>
			<path class="st0" d="M206.2,174.6c-0.7,1.2-1.1,2.6-1.8,3.8s-1.5,2.2-2.5,3.2c-3.3,3.4,1.8,8.4,5.1,5.1c3-2.9,5.1-8.2,3.1-12.2
				C209.2,173,207,173.2,206.2,174.6L206.2,174.6z"/>
		</g>
		<g>
			<path class="st0" d="M182.2,152.2c-2.6,0.5-5.4,0.9-7.9,1.8c-2,0.7-3.4,2.7-2.8,4.9c0.6,2.3,2.8,3.2,4.9,2.8
				c2.6-0.5,5.2-1.6,7.7-2.4C188.7,157.9,186.9,151.3,182.2,152.2L182.2,152.2z"/>
		</g>
	</g>
</g>
<g class="st1">
	<path class="st0" d="M86.7,209.1c1.3,0,2.1,0.5,2.8,1.5c0.9,1.3,2.2,2.2,3.7,2.6c8.7,2.1,14.9,3.8,18.6,5.2
		c7.8,3.1,13,6.2,15.7,9.4c2,2.3,2.9,4.8,2.9,7.8c0,2.6-0.7,5.3-2.4,8.3c-2.6,5.3-7.9,9.1-15.7,11.5c-5.4,1.7-20.2,4.4-20.9,4.5
		c-1.7,0.4-2.3,2.1-2.3,5.3c0,3,0.4,5.6,1.9,13c0.5,2.8,0.8,4.7,0.8,5.5v0.9c0,4-0.5,6.5-1.4,7.7c-0.6,0.7-1.1,1-2,1
		c-0.9,0-2.1-0.5-3.4-1.4l-0.1-0.1c-5.4-3.2-5.5-4.1-5.5-12.1c0-1.4,0-3.2,0.1-5c0.1-0.9,0.1-1.7,0.1-2.4c0-5.1-0.4-8.5-1.3-10
		c-0.3-0.4-1.1-1.1-2.5-2c-1.1-0.7-1.7-1.4-1.8-2.3c-0.1-0.2-0.1-0.3-0.1-0.5c0-0.7,0.3-1.4,1.1-2.1l3-2.2c-0.4-8-0.6-14-0.7-18.2
		c0-0.5,0.1-1.5,0.3-3.2c0.2-1.8,0.3-3.2,0.3-4.3V227c0.1-0.9,0.2-1.7,0.2-2.2c0-1.9-0.6-3-2.1-3h-0.5c-1.6,0-2.6-0.5-3.2-1.6
		c-0.2-0.4-0.3-0.7-0.3-1.2c0-2.2,2.1-4.3,5.1-5.6c1.7-0.7,2.9-1.4,3.5-2c1.8-1.5,3.6-2.2,5.4-2.2H86.7z M88.6,235
		c0,8.1,0.1,12.9,0.3,14.3c19.4-3.1,30.6-4.9,30.6-11.8v-0.2c0-3.7-4-6.9-12.1-9.9c-0.6-0.2-6.2-1.6-16.4-3.9l-2.4,0.3V235z"/>
	<path class="st0" d="M168.5,285.3c-0.5,2.3-3.4,4.4-6,4.4c-1,0-1.8-0.3-2.6-1c-1.6-1.4-3.1-4.4-4.7-9.2c-1.3-4.4-2.7-7.4-4.3-8.6
		l-3,5.9c-3.7,5.7-7,9.9-15.2,12.8c-1,0.3-1.9,0.3-2.8,0.3c-4.9,0-8.3-3.4-8.6-9.1c0-6,3.8-13.4,11.4-22c9.9-8,17-11.8,21.7-11.8
		h0.4c3.2,0,4.7,6.3,5.8,15.6l0.5,3.1c0-0.1,0.2,0.7,0.4,2.1c0.7,3.6,1.4,6.3,2.3,8c0.3,0.6,0.9,1.7,2.1,3.2
		C167.7,281.5,168.5,283.6,168.5,285.3z M147.1,259.2c-0.1-0.2-0.7-0.5-1.3-0.5c-1.2,0-2.8,1.1-4.3,2.7c-4.5,5.1-9.7,15.1-9.4,17.8
		C138.3,278.8,147.2,265.9,147.1,259.2z"/>
	<path class="st0" d="M203.9,250.6c0,0.6-0.2,1.2-0.7,1.9c-0.9,1.2-3.2,2.6-6.9,4.4c-8.3,3.8-10.9,5.5-12.6,12.7
		c-0.4,1.8-0.8,5.1-1.1,9.9c-0.4,6.2-2.1,10.9-5.5,10.9c-0.6,0-1.2-0.2-1.9-0.5c-5.3-2.4-5.3-13.7-5.5-20.3l-0.2-6.1
		c-0.1-0.3-0.1-0.6-0.1-0.9c0-3.5,2-7.1,4.8-8.4c0.6-0.2,1.2-0.3,1.7-0.3c0.7,0,1.5,0.3,2.1,0.8c1.3,1,2,2.9,2.2,5.7
		c1.2-8,6.8-13.1,15-14.2c0.3-0.1,0.6-0.1,1-0.1C199.6,246.2,203.9,248.3,203.9,250.6z M231.5,246.1c3.1,0,6.7,2.6,6.7,5.1
		c0,0.3-0.1,0.6-0.2,1c-11,5.6-19.1,15.9-22.3,30.2c-1.1,5.2-2.8,7.8-4.9,7.8c-0.9,0-2-0.5-3-1.5c-5.5-5-8.5-16.7-8.7-26.5V262
		c0-2.8,2.5-5.2,5.2-5.2h0.1c3.2,0,5.7,3,6.2,9.5c2.2-8,12.3-20.2,20.7-20.2H231.5z"/>
	<path class="st0" d="M246.3,228.9c3.4,0,5.5,1.6,5.5,3.9c0,2.8-2.9,5.6-6.8,5.6c-0.3,0-0.7-0.1-1.1-0.1c-3.6-0.2-5.2-2.1-5.2-4
		v-0.1c0.1-2.9,3.3-5.3,6.7-5.3C245.6,228.8,246,228.8,246.3,228.9z M249.4,249.7c1.2,6.7,1.8,14.1,1.8,22.4v3l-0.3,12.1
		c0,1.2-4.3,3.3-6.3,3.3c-0.5,0-0.9-0.1-1.2-0.3c-2.2-1.8-3.4-4.7-3.8-8.5c-0.1-0.7-0.1-1.7-0.1-2.6c0-2.2,0.1-5.1,0.5-8.6l0.3-3.2
		c0.2-2.6,0.3-5.3,0.3-8.2c0-1.9-0.1-3.3-0.2-4.9c-0.1-0.2-0.1-0.5-0.1-0.7c0-2.6,1.7-5.9,6.4-5.9
		C248.4,247.3,249.4,248.1,249.4,249.7z"/>
	<path class="st0" d="M264.2,208.2c0.9,0,1.8,0.3,2.5,1c2.7,2.6,4.1,11.4,4.1,26.4c0,1.3,0,2.8-0.1,4.2v3.6
		c0.4,12.5,1.4,24.7,3,36.6c0.1,0.7,0.1,1.4,0.1,2c0,2.4-0.7,4.5-2.1,6.2c-0.9,1.1-2,1.7-3.1,1.7h-0.2c-2.1,0-3.7-1.7-5.1-5.1
		c-2.1-5.5-3.8-17.5-5.1-36.3c-0.4-6.4-0.6-12.1-0.6-17c0-10.8,1-17.9,3.2-21.3c0.8-1.3,1.8-2,3-2.1H264.2z M290.2,214.5
		c1.6,1.8,2.4,6.2,2.4,13.2c0,3.7-0.2,8-0.6,13.1c-0.1,1.7-0.2,2.6-0.2,3c-0.1,2.1-0.2,4.1-0.2,6.2c0,9.2,0.9,18.9,2.8,28.9
		c0.3,1.6,0.5,3,0.5,4.3c0,2.5-0.6,4.5-1.7,5.9c-0.7,0.8-1.7,1.3-2.8,1.3c-1.1,0-2.3-0.5-3.7-1.4c-3-1.9-4.9-9.5-5.6-22.7
		c-0.1-2.1-0.2-3.4-0.3-4.2c-0.3-4.3-0.5-8.5-0.5-12.9v-3.1c0-13,0.5-23.2,1.5-30.4l0.1-0.3l0.3-0.2c1.9-1.2,3.8-1.7,5.7-1.7
		C288.7,213.5,289.6,213.9,290.2,214.5z"/>
	<path class="st0" d="M346.1,285.3c-0.5,2.3-3.5,4.4-6,4.4c-1,0-1.8-0.3-2.6-1c-1.6-1.4-3.1-4.4-4.7-9.2c-1.3-4.4-2.7-7.4-4.3-8.6
		l-3,5.9c-3.7,5.7-7,9.9-15.2,12.8c-1,0.3-1.9,0.3-2.8,0.3c-4.9,0-8.3-3.4-8.6-9.1c0-6,3.8-13.4,11.4-22c9.9-8,17-11.8,21.7-11.8
		h0.4c3.2,0,4.7,6.3,5.8,15.6l0.5,3.1c0-0.1,0.2,0.7,0.4,2.1c0.7,3.6,1.4,6.3,2.3,8c0.3,0.6,0.9,1.7,2.1,3.2
		C345.2,281.5,346.1,283.6,346.1,285.3z M324.7,259.2c-0.1-0.2-0.7-0.5-1.3-0.5c-1.2,0-2.8,1.1-4.3,2.7c-4.5,5.1-9.7,15.1-9.4,17.8
		C315.8,278.8,324.7,265.9,324.7,259.2z"/>
	<path class="st0" d="M365.6,247.5c3.1,0,5.8,1.8,6.7,3.9c0.2,0.5,0.3,0.9,0.3,1.3c0,0.6-0.2,1.2-0.5,1.8c-0.7,1-2,1.8-3.9,2.2
		c-9.3,1.5-10.8,1.6-10.8,3.3c0,0.3,0.1,0.6,0.3,0.9l0.3,0.3c1.3,0.3,7.6,2.6,19.1,6.8c4.3,1.6,7.1,3.3,8.7,5.3
		c1,1.3,1.6,2.8,1.6,4.3c0,1.4-0.4,2.9-1.2,4.5c-1.8,3.4-9.5,6.5-18.1,7.7c-2.6,0.3-4.9,0.6-7,0.6c-3,0-9.2-0.2-10.5-3.6
		c-0.7-1.7-1-3.2-1-4.5c0-2.1,0.8-5,3.5-5c0.7,0,1.5,0.2,2.3,0.6c4,1.7,7.4,2.5,10.3,2.5c3.1,0,8.9-0.5,10.8-2.4
		c-11.9-5.7-30-9.5-30-16c-0.1-0.6-0.1-1.2-0.1-1.7c0-7.9,9.9-12.9,18.5-12.9H365.6z"/>
</g>
</svg>
