<?xml version="1.0" encoding="utf-8"?>
<!-- Generator: Adobe Illustrator 22.0.1, SVG Export Plug-In . SVG Version: 6.00 Build 0)  -->
<svg version="1.1" id="Layer_1" xmlns="http://www.w3.org/2000/svg" xmlns:xlink="http://www.w3.org/1999/xlink" x="0px" y="0px"
	 viewBox="0 0 461.9 459.3" style="enable-background:new 0 0 461.9 459.3;" xml:space="preserve">
<style type="text/css">
	.st0{fill:#FFFFFF;}
	.st1{enable-background:new    ;}
</style>
<g>
	<g>
		<path class="st0" d="M171.8,399.2c-3.1,1.6-0.7,5.1,1,6.8c2.4,2.4,5.7,4,9.1,4.7c8.2,1.5,16-1.9,22.4-6.8c7.3-5.6,13-13.2,20.9-18
			c8-4.9,17.6-6.2,26.8-5.2c-0.3-2.3-0.6-4.7-1-7c-7.2,1.9-15.1,5.4-20.2,10.9c-5.4,5.8-3,14.1,3.3,18.1c6.6,4.3,16.4,3.6,23.9,3.2
			c9.1-0.5,18.3-1.8,27.2-3.7c4.6-0.9,3.6-8.9-1.1-8.3c-13.3,1.8-27.1,5-40.6,3.7c-3.9-0.4-11.3-3.7-6.7-8.3
			c4.2-4.2,10.5-7,16.1-8.7c4-1.2,3-6.7-1-7c-7.8-0.6-15.7,0.3-22.9,3.2c-7.4,3-13.2,8.1-18.7,13.8c-5.3,5.5-10.7,11.6-18,14.5
			c-3.2,1.3-6.7,1.8-10.1,1.2c-1.8-0.3-3.5-0.8-5.1-1.6c-0.3-0.1-4.3-2.8-3.8-3.4C174.5,400.2,173.1,398.5,171.8,399.2L171.8,399.2z
			"/>
	</g>
</g>
<g>
	<g>
		<g>
			<path class="st0" d="M202.4,101.4c-6.7,10.5-11.1,23.9-4.5,35.5c5.7,10.1,17.1,16,28.5,16.4c11.7,0.4,22.9-5.5,30.1-14.7
				c7.8-10,10.2-23.2,7.3-35.5c-3-12.4-12-24.8-25.5-26.4c-12.5-1.5-24.2,7-30.5,17.1c-7,11.4-7.8,27.3,2.2,37.2
				c9.8,9.7,25.4,9,35.5,0.3c5.2-4.4,8.6-11,8.7-17.9c0.2-7.5-4.3-14-11.5-16.4c-13.3-4.6-30.5,5-31.1,19.6
				c-0.2,5.9,9.6,7.5,10.6,1.4c1.2-7.1,8.2-12.2,15.5-10.9c1.6,0.3,3.2,0.9,4.3,2.2c0.8,1,1.1,2.5,1.1,3.8c0,1.5-0.4,3.2-0.9,4.5
				c-0.8,2-2,3.5-3.5,5c-5.9,5.7-15.7,6.6-21.5,0.2c-6.1-6.7-4.3-16.7,0.2-23.8c4.2-6.7,12.1-12.7,20.2-11.8
				c8.5,0.9,14.1,10.2,16.5,17.7c2.8,8.9,2,18.8-3,26.8c-4.5,7.3-12,12.7-20.5,14c-9.6,1.5-20.2-2.3-26.2-10
				c-7.6-9.8-3.9-22.5,1.6-32.4C207.3,101.1,203.8,99.2,202.4,101.4L202.4,101.4z"/>
		</g>
		<g>
			<path class="st0" d="M196.7,99.5c-0.4-2.2-2.4-3.9-3.7-5.5s-2.8-4.2-4.7-5.1c-3.7-1.7-7.4,1.8-5.5,5.5c1,1.9,3.5,3.3,5.2,4.6
				s3.5,3.2,5.6,3.6C195.5,103,197.1,101.5,196.7,99.5L196.7,99.5z"/>
		</g>
		<g>
			<path class="st0" d="M225.5,73.4c0-3.9,0.9-8.6-0.7-12.2c-1.7-3.7-6.9-2.2-8,1.1c-1.2,3.5,0.9,8.6,2,12
				C219.8,78,225.5,77.5,225.5,73.4L225.5,73.4z"/>
		</g>
		<g>
			<path class="st0" d="M264.7,82.1c2.3-1.2,4.4-2.6,6.6-4c2.4-1.5,4.9-2.6,6.6-4.9c2.3-3.1-1.5-6.9-4.7-6.1c-2.7,0.7-5,3.2-7.1,5
				s-3.9,3.7-5.5,6C258.7,80.6,262.3,83.3,264.7,82.1L264.7,82.1z"/>
		</g>
		<g>
			<path class="st0" d="M270.2,132.9c3.1,2.3,7,3.7,10.5,5.2c2.5,1.1,5.3,0.5,6.5-2.2c1.1-2.5-0.3-5.4-2.9-6.1
				c-4-1.2-8.2-2.7-12.4-3C268.2,126.6,267.8,131.2,270.2,132.9L270.2,132.9z"/>
		</g>
		<g>
			<path class="st0" d="M254.9,153.4c-0.6,2.2,0.3,4.3,0.9,6.4c0.6,2.2,0.8,4.5,1.9,6.5c2.2,3.8,7.7,1.9,7.9-2.2
				c0.2-2.6-1.2-5.2-2.3-7.5c-1.1-2.2-2.4-4.3-4.8-5.2C257,150.8,255.3,152,254.9,153.4L254.9,153.4z"/>
		</g>
		<g>
			<path class="st0" d="M205.7,159.6c-0.7,1.2-1.1,2.6-1.8,3.8s-1.5,2.2-2.5,3.2c-3.3,3.4,1.8,8.4,5.1,5.1c3-2.9,5.1-8.2,3.1-12.2
				C208.7,158,206.5,158.2,205.7,159.6L205.7,159.6z"/>
		</g>
		<g>
			<path class="st0" d="M181.7,137.2c-2.6,0.5-5.4,0.9-7.9,1.8c-2,0.7-3.4,2.7-2.8,4.9c0.6,2.3,2.8,3.2,4.9,2.8
				c2.6-0.5,5.2-1.6,7.7-2.4C188.2,142.9,186.4,136.3,181.7,137.2L181.7,137.2z"/>
		</g>
	</g>
</g>
<g class="st1">
	<path class="st0" d="M85.1,184.1c1.3,0,2.1,0.5,2.8,1.5c0.9,1.3,2.2,2.2,3.7,2.6c8.7,2.1,14.9,3.8,18.6,5.2
		c7.8,3.1,13,6.2,15.7,9.4c2,2.3,2.9,4.8,2.9,7.8c0,2.6-0.7,5.3-2.4,8.3c-2.6,5.3-7.9,9.1-15.7,11.5c-5.4,1.7-20.2,4.4-20.9,4.5
		c-1.7,0.4-2.3,2.1-2.3,5.3c0,3,0.4,5.6,1.9,13c0.5,2.8,0.8,4.7,0.8,5.5v0.9c0,4-0.5,6.5-1.4,7.7c-0.6,0.7-1.1,1-2,1
		c-0.9,0-2.1-0.5-3.4-1.4l-0.1-0.1c-5.4-3.2-5.5-4.1-5.5-12.1c0-1.4,0-3.2,0.1-5c0.1-0.9,0.1-1.7,0.1-2.4c0-5.1-0.4-8.5-1.3-10
		c-0.3-0.4-1.1-1.1-2.5-2c-1.1-0.7-1.7-1.4-1.8-2.3c-0.1-0.2-0.1-0.3-0.1-0.5c0-0.7,0.3-1.4,1.1-2.1l3-2.2c-0.4-8-0.6-14-0.7-18.2
		c0-0.5,0.1-1.5,0.3-3.2c0.2-1.8,0.3-3.2,0.3-4.3V202c0.1-0.9,0.2-1.7,0.2-2.2c0-1.9-0.6-3-2.1-3h-0.5c-1.6,0-2.6-0.5-3.2-1.6
		c-0.2-0.4-0.3-0.7-0.3-1.2c0-2.2,2.1-4.3,5.1-5.6c1.7-0.7,2.9-1.4,3.5-2c1.8-1.5,3.6-2.2,5.4-2.2H85.1z M87,210
		c0,8.1,0.1,12.9,0.3,14.3c19.4-3.1,30.6-4.9,30.6-11.8v-0.2c0-3.7-4-6.9-12.1-9.9c-0.6-0.2-6.2-1.6-16.4-3.9l-2.4,0.3V210z"/>
	<path class="st0" d="M135.2,203.9c3.4,0,5.5,1.6,5.5,3.9c0,2.8-2.9,5.6-6.8,5.6c-0.3,0-0.7-0.1-1.1-0.1c-3.6-0.2-5.2-2.1-5.2-4
		v-0.1c0.1-2.9,3.3-5.3,6.7-5.3C134.5,203.8,134.8,203.8,135.2,203.9z M138.2,224.7c1.2,6.7,1.8,14.1,1.8,22.4v3l-0.3,12.1
		c0,1.2-4.3,3.3-6.3,3.3c-0.5,0-0.9-0.1-1.2-0.3c-2.2-1.8-3.4-4.7-3.8-8.5c-0.1-0.7-0.1-1.7-0.1-2.6c0-2.2,0.1-5.1,0.5-8.6l0.3-3.2
		c0.2-2.6,0.3-5.3,0.3-8.2c0-1.9-0.1-3.3-0.2-4.9c-0.1-0.2-0.1-0.5-0.1-0.7c0-2.6,1.7-5.9,6.4-5.9
		C137.3,222.3,138.2,223.1,138.2,224.7z"/>
	<path class="st0" d="M167,222.5c3.1,0,5.8,1.8,6.7,3.9c0.2,0.5,0.3,0.9,0.3,1.3c0,0.6-0.2,1.2-0.5,1.8c-0.7,1-2,1.8-3.9,2.2
		c-9.3,1.5-10.8,1.6-10.8,3.3c0,0.3,0.1,0.6,0.3,0.9l0.3,0.3c1.3,0.3,7.6,2.6,19.1,6.8c4.3,1.6,7.1,3.3,8.7,5.3
		c1,1.3,1.6,2.8,1.6,4.3c0,1.4-0.4,2.9-1.2,4.5c-1.8,3.4-9.5,6.5-18.1,7.7c-2.6,0.3-4.9,0.6-7,0.6c-3,0-9.2-0.2-10.5-3.6
		c-0.7-1.7-1-3.2-1-4.5c0-2.1,0.8-5,3.4-5c0.7,0,1.5,0.2,2.3,0.6c4,1.7,7.4,2.5,10.3,2.5c3.1,0,8.9-0.5,10.8-2.4
		c-11.9-5.7-30-9.5-30-16c-0.1-0.6-0.1-1.2-0.1-1.7c0-7.9,9.9-12.9,18.5-12.9H167z"/>
	<path class="st0" d="M210.3,223.6c3,0,3.9,0.1,4.8,2.6c0.2,0.7,0.4,1.3,0.4,1.9c0,1.8-1.1,3.3-3.2,4.5c-8.7,5.3-10.5,9.3-10.5,13.7
		c0,1.1,0.2,2.3,0.6,3.6c0.9,2.8,2.9,5.3,6,5.3c0.5,0,1-0.1,1.5-0.1c2.5-0.3,6.4-1.7,11.8-5.3c5.1-3.5,10.4-5.1,12.2-5.4
		c0.6-0.1,1.1-0.2,1.6-0.2c2.3,0,3.5,1.3,3.7,3.8c-0.9,5.1-7.6,10.1-20.4,14.9c-4.2,1.6-8,2.4-11.3,2.4c-10.2,0-14.9-7.9-15.1-16.4
		v-0.9c0-7.4,3.1-15.8,8.5-20.7c2.8-2.5,5.9-3.8,9.2-3.8H210.3z"/>
	<path class="st0" d="M245,203.9c3.4,0,5.5,1.6,5.5,3.9c0,2.8-2.9,5.6-6.8,5.6c-0.3,0-0.7-0.1-1.1-0.1c-3.6-0.2-5.2-2.1-5.2-4v-0.1
		c0.1-2.9,3.3-5.3,6.7-5.3C244.3,203.8,244.7,203.8,245,203.9z M248.1,224.7c1.2,6.7,1.8,14.1,1.8,22.4v3l-0.3,12.1
		c0,1.2-4.3,3.3-6.3,3.3c-0.5,0-0.9-0.1-1.2-0.3c-2.2-1.8-3.4-4.7-3.8-8.5c-0.1-0.7-0.1-1.7-0.1-2.6c0-2.2,0.1-5.1,0.5-8.6l0.3-3.2
		c0.2-2.6,0.3-5.3,0.3-8.2c0-1.9-0.1-3.3-0.2-4.9c-0.1-0.2-0.1-0.5-0.1-0.7c0-2.6,1.7-5.9,6.4-5.9
		C247.2,222.3,248.1,223.1,248.1,224.7z"/>
	<path class="st0" d="M286.5,218.2c2.1,5.1,4.1,13.1,5.6,24c0.6,3.9,1.1,6.8,1.4,8.7c0.1,0.7,0.4,1.8,0.9,3.4c0.7,2.7,1,4.8,1,6.6
		c0,2.6-0.8,4-3.9,4c-0.7,0-1.3-0.1-2.1-0.2c-4.1-0.7-5.8-8.8-7.6-23.5c-0.7-5-1.2-8.2-1.6-9.7l-0.9-0.2c-8.2,6-10.8,12.5-10.9,21.5
		c0,3.6-3.7,10.4-7,10.4c-2.8,0-5-3.7-5-9.9c0-2.9,0.3-6.6,1-11c0.6-3.9,0.9-6.6,0.9-8c0.1-5.3,2.8-7.2,5.5-7.2c1.2,0,4,0.3,4.3,1.7
		l1,0.3c1-1,2.2-2.6,3.5-4.8c2.7-4.1,3.4-5,6-6.6c1.9-1.2,3.3-1.7,4.7-1.7C284.8,216,285.8,216.7,286.5,218.2z"/>
	<path class="st0" d="M346.7,260.3c-0.5,2.3-3.4,4.4-6,4.4c-1,0-1.8-0.3-2.6-1c-1.6-1.4-3.1-4.4-4.7-9.2c-1.3-4.4-2.7-7.4-4.3-8.6
		l-3,5.9c-3.7,5.7-7,9.9-15.2,12.8c-1,0.3-1.9,0.3-2.8,0.3c-4.9,0-8.3-3.4-8.6-9.1c0-6,3.8-13.4,11.4-22c9.9-8,17-11.8,21.7-11.8
		h0.4c3.2,0,4.7,6.3,5.8,15.6l0.5,3.1c0-0.1,0.2,0.7,0.4,2.1c0.7,3.6,1.4,6.3,2.3,8c0.3,0.6,0.9,1.7,2.1,3.2
		C345.8,256.5,346.7,258.6,346.7,260.3z M325.3,234.2c-0.1-0.2-0.7-0.5-1.3-0.5c-1.2,0-2.8,1.1-4.3,2.7c-4.5,5.1-9.7,15.1-9.4,17.8
		C316.4,253.8,325.4,240.9,325.3,234.2z"/>
	<path class="st0" d="M366.2,222.5c3.1,0,5.8,1.8,6.7,3.9c0.2,0.5,0.3,0.9,0.3,1.3c0,0.6-0.2,1.2-0.5,1.8c-0.7,1-2,1.8-3.9,2.2
		c-9.3,1.5-10.8,1.6-10.8,3.3c0,0.3,0.1,0.6,0.3,0.9l0.3,0.3c1.3,0.3,7.6,2.6,19.1,6.8c4.3,1.6,7.1,3.3,8.7,5.3
		c1,1.3,1.6,2.8,1.6,4.3c0,1.4-0.4,2.9-1.2,4.5c-1.8,3.4-9.5,6.5-18.1,7.7c-2.6,0.3-4.9,0.6-7,0.6c-3,0-9.2-0.2-10.5-3.6
		c-0.7-1.7-1-3.2-1-4.5c0-2.1,0.8-5,3.4-5c0.7,0,1.5,0.2,2.3,0.6c4,1.7,7.4,2.5,10.3,2.5c3.1,0,8.9-0.5,10.8-2.4
		c-11.9-5.7-30-9.5-30-16c-0.1-0.6-0.1-1.2-0.1-1.7c0-7.9,9.9-12.9,18.5-12.9H366.2z"/>
</g>
<g class="st1">
	<path class="st0" d="M78.3,348.2c0-1.4,1-2.4,2.4-2.4c2.5,0,4.6-1.6,5.4-4l2.9-9.6l-9.4-31.3c-0.4-1.3,0.3-2.6,1.6-3
		c1.3-0.3,2.6,0.4,3,1.6l7.3,24.4l7.4-24.4c0.3-1.2,1.7-1.9,3-1.6c1.3,0.4,2,1.8,1.6,3l-9.6,32l-3,10.2c-0.7,2.2-2,4.1-3.8,5.4
		c-1.8,1.4-4,2.1-6.2,2.1C79.3,350.6,78.3,349.6,78.3,348.2z"/>
	<path class="st0" d="M123.6,300.5c0-1.4,1-2.4,2.4-2.4h4v-5.9c0-5.8,4.6-10.4,10.4-10.4c1.4,0,2.4,1,2.4,2.4s-1,2.4-2.4,2.4
		c-3.1,0-5.6,2.5-5.6,5.6v5.9h5.6c1.4,0,2.4,1,2.4,2.4s-1,2.4-2.4,2.4h-5.6v29.3c0,1.4-1,2.4-2.4,2.4c-1.4,0-2.4-1-2.4-2.4v-29.3h-4
		C124.7,302.9,123.6,301.9,123.6,300.5z"/>
	<path class="st0" d="M150.6,326.7v-42.5c0-1.4,1.1-2.4,2.4-2.4c1.4,0,2.4,1,2.4,2.4v42.5c0,1.4,0.8,2.7,2,3.4
		c1.2,0.6,1.6,2.2,0.9,3.3c-0.6,1.1-2.1,1.5-3.3,0.9C152.4,332.7,150.6,329.8,150.6,326.7z"/>
	<path class="st0" d="M165.9,324.2v-16c0-5.8,4.6-10.4,10.4-10.4c5.7,0,10.4,4.6,10.4,10.4v16c0,5.8-4.7,10.4-10.4,10.4
		C170.5,334.6,165.9,330,165.9,324.2z M170.7,308.2v16c0,3.1,2.5,5.6,5.6,5.6c3,0,5.6-2.5,5.6-5.6v-16c0-3.1-2.6-5.6-5.6-5.6
		C173.2,302.6,170.7,305.1,170.7,308.2z"/>
	<path class="st0" d="M193.4,300.5c0-1.4,1-2.4,2.4-2.4h4v-13.9c0-1.4,1-2.4,2.4-2.4c1.4,0,2.4,1,2.4,2.4v13.9h5.6
		c1.4,0,2.4,1,2.4,2.4s-1,2.4-2.4,2.4h-5.6v21.3c0,3.1,2.5,5.6,5.6,5.6c1.4,0,2.4,1,2.4,2.4c0,1.4-1,2.4-2.4,2.4
		c-5.8,0-10.4-4.6-10.4-10.4v-21.3h-4C194.4,302.9,193.4,301.9,193.4,300.5z"/>
	<path class="st0" d="M233.4,313.5V308c0-2.2-1.4-4.2-3.4-5c-2.1-0.8-4.4-0.4-5.9,1.2c-1,1-2.5,1-3.4,0c-1-1-1-2.5,0-3.4
		c3-3,7.4-3.8,11.2-2.2c3.8,1.6,6.3,5.3,6.3,9.4v23.8c0,1.4-1.1,2.4-2.4,2.4h-8c-5.8,0-10.4-4.6-10.4-10.4c0-5.8,4.6-10.4,10.4-10.4
		H233.4z M227.8,329.5h5.6v-11.2h-5.6c-3.1,0-5.6,2.5-5.6,5.6S224.7,329.5,227.8,329.5z"/>
	<path class="st0" d="M247.8,323.9v-15.4c0-5.8,4.6-10.4,10.4-10.4h5.6v-13.9c0-1.4,1-2.4,2.4-2.4c1.3,0,2.4,1,2.4,2.4v47.7
		c0,1.4-1.1,2.4-2.4,2.4h-8C252.4,334.3,247.8,329.6,247.8,323.9z M252.6,308.5v15.4c0,3.1,2.5,5.6,5.6,5.6h5.6v-26.6h-5.6
		C255.1,302.9,252.6,305.4,252.6,308.5z"/>
	<path class="st0" d="M278.8,324.2v-16c0-5.8,4.6-10.4,10.4-10.4c5.7,0,10.4,4.6,10.4,10.4v16c0,5.8-4.7,10.4-10.4,10.4
		C283.5,334.6,278.8,330,278.8,324.2z M283.6,308.2v16c0,3.1,2.5,5.6,5.6,5.6c3,0,5.6-2.5,5.6-5.6v-16c0-3.1-2.6-5.6-5.6-5.6
		C286.1,302.6,283.6,305.1,283.6,308.2z"/>
	<path class="st0" d="M309.9,332.2v-31.7c0-1.4,1-2.4,2.4-2.4h8c1.8,0,3.6,0.5,5.2,1.4c1.1,0.7,1.5,2.2,0.9,3.3
		c-0.6,1.2-2.2,1.6-3.3,0.9c-0.9-0.5-1.8-0.7-2.8-0.7h-5.6v29.3c0,1.4-1,2.4-2.4,2.4S309.9,333.6,309.9,332.2z"/>
	<path class="st0" d="M332.8,324.2v-16c0-5.8,4.6-10.4,10.4-10.4s10.4,4.6,10.4,10.4v8c0,1.4-1,2.4-2.4,2.4h-13.6v5.6
		c0,2.2,1.4,4.3,3.4,5.2s4.5,0.4,6.1-1.2c1-1,2.5-1,3.4,0c1,0.9,1,2.4,0,3.4c-3,3-7.4,3.8-11.4,2.2
		C335.3,332.2,332.8,328.4,332.8,324.2z M337.6,308.2v5.6c3.2,0,8.8,0,11.2,0c0-2.3,0-5.6,0-5.6c0-3.1-2.5-5.6-5.6-5.6
		S337.6,305.1,337.6,308.2z"/>
	<path class="st0" d="M375.4,324.4c-0.1-1.6-0.9-3-2.2-3.8l-7.4-5.3c-2.4-1.7-3.8-4.3-4.1-7.2c-0.2-3,1-5.8,3.1-7.7
		c2.2-2,5-2.9,7.9-2.5c2.9,0.5,5.4,2.2,6.9,4.7c0.6,1.1,0.2,2.6-0.9,3.3s-2.6,0.2-3.3-0.9c-0.7-1.3-2-2.1-3.4-2.3
		c-1.4-0.2-2.9,0.2-4,1.2c-1,1-1.6,2.4-1.5,3.8c0.1,1.4,0.9,2.8,2.1,3.6l7.4,5.2c2.5,1.8,4,4.5,4.2,7.5c0.2,3-1,5.9-3.2,7.9
		c-2.2,2.1-5.2,3-8.2,2.6c-3-0.5-5.6-2.2-7.1-4.9c-0.6-1.1-0.2-2.6,0.9-3.3s2.6-0.2,3.3,0.9c0.8,1.4,2.1,2.2,3.7,2.5
		c1.5,0.2,3-0.2,4.2-1.3C374.9,327.4,375.6,325.9,375.4,324.4z"/>
</g>
</svg>
