<?xml version="1.0" encoding="utf-8"?>
<!-- Generator: Adobe Illustrator 22.0.1, SVG Export Plug-In . SVG Version: 6.00 Build 0)  -->
<svg version="1.1" id="Capa_4" xmlns="http://www.w3.org/2000/svg" xmlns:xlink="http://www.w3.org/1999/xlink" x="0px" y="0px"
	 viewBox="0 0 461.9 459.3" style="enable-background:new 0 0 461.9 459.3;" xml:space="preserve">
<style type="text/css">
	.st0{fill:#FFFFFF;}
	.st1{enable-background:new    ;}
</style>
<g>
	<g>
		<path class="st0" d="M171,394.2c-3.1,1.6-0.7,5.1,1,6.8c2.4,2.4,5.7,4,9.1,4.7c8.2,1.5,16-1.9,22.4-6.8c7.3-5.6,13-13.2,20.9-18
			c8-4.9,17.6-6.2,26.8-5.2c-0.3-2.3-0.6-4.7-1-7c-7.2,1.9-15.1,5.4-20.2,10.9c-5.4,5.8-3,14.1,3.3,18.1c6.6,4.3,16.4,3.6,23.9,3.2
			c9.1-0.5,18.3-1.8,27.2-3.7c4.6-0.9,3.6-8.9-1.1-8.3c-13.3,1.8-27.1,5-40.6,3.7c-3.9-0.4-11.3-3.7-6.7-8.3
			c4.2-4.2,10.5-7,16.1-8.7c4-1.2,3-6.7-1-7c-7.8-0.6-15.7,0.3-22.9,3.2c-7.4,3-13.2,8.1-18.7,13.8c-5.3,5.5-10.7,11.6-18,14.5
			c-3.2,1.3-6.7,1.8-10.1,1.2c-1.8-0.3-3.5-0.8-5.1-1.6c-0.3-0.1-4.3-2.8-3.8-3.4C173.7,395.2,172.3,393.5,171,394.2L171,394.2z"/>
	</g>
</g>
<g>
	<g>
		<g>
			<path class="st0" d="M201.6,96.4c-6.7,10.5-11.1,23.9-4.5,35.5c5.7,10.1,17.1,16,28.5,16.4c11.7,0.4,22.9-5.5,30.1-14.7
				c7.8-10,10.2-23.2,7.3-35.5c-3-12.4-12-24.8-25.5-26.4c-12.5-1.5-24.2,7-30.5,17.1c-7,11.4-7.8,27.3,2.2,37.2
				c9.8,9.7,25.4,9,35.5,0.3c5.2-4.4,8.6-11,8.7-17.9c0.2-7.5-4.3-14-11.5-16.4c-13.3-4.6-30.5,5-31.1,19.6
				c-0.2,5.9,9.6,7.5,10.6,1.4c1.2-7.1,8.2-12.2,15.5-10.9c1.6,0.3,3.2,0.9,4.3,2.2c0.8,1,1.1,2.5,1.1,3.8c0,1.5-0.4,3.2-0.9,4.5
				c-0.8,2-2,3.5-3.5,5c-5.9,5.7-15.7,6.6-21.5,0.2c-6.1-6.7-4.3-16.7,0.2-23.8c4.2-6.7,12.1-12.7,20.2-11.8
				c8.5,0.9,14.1,10.2,16.5,17.7c2.8,8.9,2,18.8-3,26.8c-4.5,7.3-12,12.7-20.5,14c-9.6,1.5-20.2-2.3-26.2-10
				c-7.6-9.8-3.9-22.5,1.6-32.4C206.5,96.1,203,94.2,201.6,96.4L201.6,96.4z"/>
		</g>
		<g>
			<path class="st0" d="M195.9,94.5c-0.4-2.2-2.4-3.9-3.7-5.5s-2.8-4.2-4.7-5.1c-3.7-1.7-7.4,1.8-5.5,5.5c1,1.9,3.5,3.3,5.2,4.6
				s3.5,3.2,5.6,3.6C194.7,98,196.3,96.5,195.9,94.5L195.9,94.5z"/>
		</g>
		<g>
			<path class="st0" d="M224.7,68.4c0-3.9,0.9-8.6-0.7-12.2c-1.7-3.7-6.9-2.2-8,1.1c-1.2,3.5,0.9,8.6,2,12
				C219,73,224.7,72.5,224.7,68.4L224.7,68.4z"/>
		</g>
		<g>
			<path class="st0" d="M263.9,77.1c2.3-1.2,4.4-2.6,6.6-4c2.4-1.5,4.9-2.6,6.6-4.9c2.3-3.1-1.5-6.9-4.7-6.1c-2.7,0.7-5,3.2-7.1,5
				s-3.9,3.7-5.5,6C257.9,75.6,261.5,78.3,263.9,77.1L263.9,77.1z"/>
		</g>
		<g>
			<path class="st0" d="M269.4,127.9c3.1,2.3,7,3.7,10.5,5.2c2.5,1.1,5.3,0.5,6.5-2.2c1.1-2.5-0.3-5.4-2.9-6.1
				c-4-1.2-8.2-2.7-12.4-3C267.4,121.6,267,126.2,269.4,127.9L269.4,127.9z"/>
		</g>
		<g>
			<path class="st0" d="M254.1,148.4c-0.6,2.2,0.3,4.3,0.9,6.4c0.6,2.2,0.8,4.5,1.9,6.5c2.2,3.8,7.7,1.9,7.9-2.2
				c0.2-2.6-1.2-5.2-2.3-7.5c-1.1-2.2-2.4-4.3-4.8-5.2C256.2,145.8,254.5,147,254.1,148.4L254.1,148.4z"/>
		</g>
		<g>
			<path class="st0" d="M204.9,154.6c-0.7,1.2-1.1,2.6-1.8,3.8s-1.5,2.2-2.5,3.2c-3.3,3.4,1.8,8.4,5.1,5.1c3-2.9,5.1-8.2,3.1-12.2
				C207.9,153,205.7,153.2,204.9,154.6L204.9,154.6z"/>
		</g>
		<g>
			<path class="st0" d="M180.9,132.2c-2.6,0.5-5.4,0.9-7.9,1.8c-2,0.7-3.4,2.7-2.8,4.9c0.6,2.3,2.8,3.2,4.9,2.8
				c2.6-0.5,5.2-1.6,7.7-2.4C187.4,137.9,185.6,131.3,180.9,132.2L180.9,132.2z"/>
		</g>
	</g>
</g>
<g class="st1">
	<path class="st0" d="M141.1,179.1c1.3,0,2.1,0.5,2.8,1.5c0.9,1.3,2.2,2.2,3.7,2.6c8.7,2.1,14.9,3.8,18.6,5.2
		c7.8,3.1,13,6.2,15.7,9.4c2,2.3,2.9,4.8,2.9,7.8c0,2.6-0.7,5.3-2.4,8.3c-2.6,5.3-7.9,9.1-15.7,11.5c-5.4,1.7-20.2,4.4-20.9,4.5
		c-1.7,0.4-2.3,2.1-2.3,5.3c0,3,0.4,5.6,1.9,13c0.5,2.8,0.8,4.7,0.8,5.5v0.9c0,4-0.5,6.5-1.4,7.7c-0.6,0.7-1.1,1-2,1
		c-0.9,0-2.1-0.5-3.5-1.4l-0.1-0.1c-5.4-3.2-5.5-4.1-5.5-12.1c0-1.4,0-3.2,0.1-5c0.1-0.9,0.1-1.7,0.1-2.4c0-5.1-0.4-8.5-1.3-10
		c-0.3-0.4-1.1-1.1-2.5-2c-1.1-0.7-1.7-1.4-1.8-2.3c-0.1-0.2-0.1-0.3-0.1-0.5c0-0.7,0.3-1.4,1.1-2.1l3-2.2c-0.4-8-0.6-14-0.7-18.2
		c0-0.5,0.1-1.5,0.3-3.2c0.2-1.8,0.3-3.2,0.3-4.3V197c0.1-0.9,0.2-1.7,0.2-2.2c0-1.9-0.6-3-2.1-3h-0.5c-1.6,0-2.6-0.5-3.2-1.6
		c-0.2-0.4-0.3-0.7-0.3-1.2c0-2.2,2.1-4.3,5.1-5.6c1.7-0.7,2.9-1.4,3.5-2c1.8-1.5,3.6-2.2,5.4-2.2H141.1z M143,205
		c0,8.1,0.1,12.9,0.3,14.3c19.4-3.1,30.6-4.9,30.6-11.8v-0.2c0-3.7-4-6.9-12.1-9.9c-0.6-0.2-6.2-1.6-16.4-3.9l-2.4,0.3V205z"/>
	<path class="st0" d="M196.3,184.5c1.3,1.5,2.2,6.3,2.2,13.3c0,3.6-0.2,8-0.7,13.1c-0.1,1.7-0.2,2.7-0.2,3c-0.1,2.1-0.2,4.1-0.2,6.2
		c0,9.1,1,18.8,2.8,28.9c0.3,1.5,0.4,3,0.4,4.3c0,2.6-0.6,4.7-1.6,5.9c-0.8,1-1.4,1.3-2.2,1.3c-0.9,0-2-0.3-3.5-1.4
		c-2.6-1.7-4.6-9.5-5.3-22.7c-0.1-2.1-0.2-3.5-0.3-4.2c-0.4-4.4-0.6-9-0.6-13.5v-2.5c0-10.3,0.5-20.5,1.6-30.4v-0.3h-0.3l0.3-0.2
		c2-1.2,3.7-1.7,5.5-1.7C194.9,183.5,195.5,183.7,196.3,184.5z"/>
	<path class="st0" d="M240.4,246.5c0.1,0.7,0.2,1.5,0.2,2.4c0,0.7-0.1,1.3-0.1,2c-0.2,3-0.7,5.2-1.7,6.6c-0.6,1-1.4,1.4-2.3,1.6
		l-0.2,0.1H236c-0.1,0-0.3-0.1-0.6-0.1c-2.5-0.4-4.3-3-4.9-7.8c-0.2-1.4-0.3-3-0.3-4.8c0-0.7,0-1.5,0.1-2.2l-1-0.4
		c-0.5,0.8-1.3,2-2.3,3.6c-3.6,6-7,9.5-10.2,10.7c-1,0.3-2,0.6-2.9,0.7c-0.4,0.1-0.9,0.1-1.3,0.1c-4,0-7.2-3.5-7.8-8.1
		c-0.1-0.5-0.1-1.1-0.1-1.7c0-1.1,0.1-2.2,0.3-3.5c0.9-4.5,3.4-9,7.8-13.5c4.7-4.8,9.4-7.4,14.4-8c0.6-0.1,1.3-0.2,2-0.2
		c0.6,0,1.1,0.1,1.7,0.2c4.4,0.3,6.4,6.9,8.6,17.2c0.3,1.8,0.6,3,0.8,3.6C240.2,245.5,240.3,245.9,240.4,246.5z M227.3,233.8
		c0-0.6-1.2-0.5-1.8-0.2c-3.9,0.6-11.4,9.3-12.1,13.6v0.9c0,0.7,0.5,1.4,1.1,1.6l0.5-0.1c4.9-0.6,10.7-9.5,12.3-15.2V233.8z
		 M282,240.4c0,3.1,1.6,30.1,1.6,32.2c0,1.7-0.2,3.1-0.5,4.3c-2.1,7.7-10.1,12.3-15.4,12.3c-6.6,0-13-3.9-19.6-11.4
		c-0.9-1-1.4-2.2-1.7-3.7c-0.1-0.6-0.2-1.3-0.2-1.7c0-1.6,0.6-3.4,2.7-3.4c0.7,0,1.6,0.2,2.6,0.7c3.8,1.8,7.4,4.8,11,6.9
		c2.4,1.6,4.6,2.4,6.2,2.4c1.5,0,2.6-0.6,3.6-1.7c1.7-2,1.4-6.7,1.4-12.1c0-5.2-0.8-17.2-0.8-27.1c-0.8,3.6-2.9,7.9-4.5,10.2
		c-4.3,6.6-7,10.1-12.8,11c-0.7,0.1-1.3,0.1-1.9,0.1c-2.2,0-4-0.8-5.4-2.2c-1.8-2.3-2.8-5.9-2.8-11c0-5.3,0.3-10.3,3.2-18.2
		c2.1-5.9,4.2-9,6.5-9c1.4,0,2.6,1.2,3.7,3.4l0.1,0.3c0,2.7-0.6,6.6-2,11.7c-1.2,4.9-1.8,8.9-1.8,11.8v0.9
		c1.9,5.3,7.3-7.1,11.7-16.7c4.1-9.1,6.4-13.3,9.8-13.3c0.4,0,0.7,0.1,1,0.2h0.2c0.5,0,1.1,0.2,1.7,0.8
		C282.3,220.6,282,234.3,282,240.4z M330.6,256.1c-0.5,2.1-3.2,4.1-5.6,4.1c-1,0-1.7-0.3-2.5-1c-1.6-1.4-2.9-4.1-4.4-8.6
		c-1.2-4.1-2.5-6.9-4-8l-2.8,5.5c-3.4,5.3-6.4,9.2-14.1,11.9c-1,0.3-1.8,0.3-2.6,0.3c-4.6,0-7.8-3.2-8.1-8.5
		c0-5.6,3.6-12.5,10.7-20.6c9.1-9.9,15.8-10.9,20.2-10.9h0.3c3,0,4.4,5.9,5.5,14.5l0.4,2.9c0-0.1,0.2,0.6,0.3,1.9
		c0.7,3.3,1.4,5.9,2.2,7.5c0.2,0.6,0.9,1.6,2,3C329.8,252.6,330.6,254.5,330.6,256.1z M310.7,231.7c-0.1-0.2-0.7-0.5-1.2-0.5
		c-1.1,0-2.6,1-4,2.5c-4.3,4.8-9,14.1-8.8,16.6C302.4,250,310.7,238,310.7,231.7z"/>
</g>
<g class="st1">
	<path class="st0" d="M104,344.2c0-1.4,1-2.4,2.4-2.4c2.5,0,4.6-1.6,5.4-4l2.9-9.6l-9.4-31.3c-0.4-1.3,0.3-2.6,1.6-3
		c1.3-0.3,2.6,0.4,3,1.6l7.3,24.4l7.4-24.4c0.3-1.2,1.7-1.9,3-1.6c1.3,0.4,2,1.8,1.6,3l-9.6,32l-3,10.2c-0.7,2.2-2,4.1-3.8,5.4
		c-1.8,1.4-4,2.1-6.2,2.1C105,346.6,104,345.6,104,344.2z"/>
	<path class="st0" d="M151.9,320.2v-16c0-4.2,2.5-8,6.4-9.6c3.9-1.6,8.3-0.7,11.4,2.2c0.9,1,0.9,2.5,0,3.4c-1,0.9-2.5,0.9-3.4,0
		c-1.6-1.7-4-2.1-6.1-1.3c-2.1,0.9-3.4,3-3.4,5.2v16c0,2.2,1.4,4.3,3.4,5.2s4.5,0.4,6.1-1.2c1-1,2.5-1,3.4,0c0.9,0.9,0.9,2.4,0,3.4
		c-3,3-7.4,3.8-11.4,2.2C154.4,328.2,151.9,324.4,151.9,320.2z"/>
	<path class="st0" d="M191.9,309.5V304c0-2.2-1.4-4.2-3.4-5c-2.1-0.8-4.4-0.4-5.9,1.2c-1,1-2.5,1-3.4,0c-1-1-1-2.5,0-3.4
		c3-3,7.4-3.8,11.2-2.2c3.8,1.6,6.3,5.3,6.3,9.4v23.8c0,1.4-1.1,2.4-2.4,2.4h-8c-5.8,0-10.4-4.6-10.4-10.4c0-5.8,4.6-10.4,10.4-10.4
		H191.9z M186.3,325.5h5.6v-11.2h-5.6c-3.1,0-5.6,2.5-5.6,5.6S183.2,325.5,186.3,325.5z"/>
	<path class="st0" d="M212.1,298.9v29.3c0,1.4-1.1,2.4-2.4,2.4c-1.4,0-2.4-1-2.4-2.4v-31.7c0-1.4,1-2.4,2.4-2.4h24
		c5.7,0,10.4,4.6,10.4,10.4v23.7c0,1.4-1.1,2.4-2.4,2.4c-1.4,0-2.4-1-2.4-2.4v-23.7c0-3.1-2.6-5.6-5.6-5.6h-5.6v29.3
		c0,1.4-1.1,2.4-2.4,2.4c-1.4,0-2.4-1-2.4-2.4v-29.3H212.1z"/>
	<path class="st0" d="M254.6,344.2v-47.7c0-1.4,1-2.4,2.4-2.4h8c5.7,0,10.4,4.6,10.4,10.4v15.4c0,5.8-4.7,10.4-10.4,10.4h-5.6v13.9
		c0,1.4-1.1,2.4-2.4,2.4C255.7,346.6,254.6,345.6,254.6,344.2z M265,298.9h-5.6v26.6h5.6c3,0,5.6-2.5,5.6-5.6v-15.4
		C270.6,301.4,268.1,298.9,265,298.9z"/>
	<path class="st0" d="M284.9,284.2c0-1.8,1.4-3.2,3.2-3.2s3.2,1.4,3.2,3.2s-1.4,3.2-3.2,3.2S284.9,286,284.9,284.2z M288.1,330.6
		c-1.3,0-2.4-1-2.4-2.4v-32c0-1.4,1.1-2.4,2.4-2.4c1.4,0,2.4,1,2.4,2.4v32C290.5,329.6,289.4,330.6,288.1,330.6z"/>
	<path class="st0" d="M301.7,328.2v-31.7c0-1.4,1-2.4,2.4-2.4h8c5.7,0,10.4,4.6,10.4,10.4v23.7c0,1.4-1.1,2.4-2.4,2.4
		c-1.4,0-2.4-1-2.4-2.4v-23.7c0-3.1-2.6-5.6-5.6-5.6h-5.6v29.3c0,1.4-1.1,2.4-2.4,2.4C302.7,330.6,301.7,329.6,301.7,328.2z"/>
	<path class="st0" d="M332.1,319.9v-15.4c0-5.8,4.6-10.4,10.4-10.4h8c1.4,0,2.4,1,2.4,2.4v39.7c0,4.2-2.5,8-6.4,9.6
		s-8.3,0.7-11.4-2.2c-1-1-1-2.5,0-3.4c1-1,2.5-1,3.4,0c1.6,1.6,4,2.1,6.1,1.2s3.4-3,3.4-5.2c0,0,0-2.4,0-5.9h-5.6
		C336.7,330.3,332.1,325.6,332.1,319.9z M336.9,304.5v15.4c0,3.1,2.6,5.6,5.6,5.6h5.6c0-10.1,0-23.9,0-26.6c-2.3,0-5.6,0-5.6,0
		C339.4,298.9,336.9,301.4,336.9,304.5z"/>
</g>
</svg>
