<?xml version="1.0" encoding="utf-8"?>
<!-- Generator: Adobe Illustrator 22.0.1, SVG Export Plug-In . SVG Version: 6.00 Build 0)  -->
<svg version="1.1" id="Capa_2_1_" xmlns="http://www.w3.org/2000/svg" xmlns:xlink="http://www.w3.org/1999/xlink" x="0px" y="0px"
	 viewBox="0 0 461.9 459.3" style="enable-background:new 0 0 461.9 459.3;" xml:space="preserve">
<style type="text/css">
	.st0{fill:#FFFFFF;}
	.st1{enable-background:new    ;}
</style>
<g>
	<g>
		<path class="st0" d="M172.6,377.2c-3.1,1.6-0.7,5.1,1,6.8c2.4,2.4,5.7,4,9.1,4.7c8.2,1.5,16-1.9,22.4-6.8c7.3-5.6,13-13.2,20.9-18
			c8-4.9,17.6-6.2,26.8-5.2c-0.3-2.3-0.6-4.7-1-7c-7.2,1.9-15.1,5.4-20.2,10.9c-5.4,5.8-3,14.1,3.3,18.1c6.6,4.3,16.4,3.6,23.9,3.2
			c9.1-0.5,18.3-1.8,27.2-3.7c4.6-0.9,3.6-8.9-1.1-8.3c-13.3,1.8-27.1,5-40.6,3.7c-3.9-0.4-11.3-3.7-6.7-8.3
			c4.2-4.2,10.5-7,16.1-8.7c4-1.2,3-6.7-1-7c-7.8-0.6-15.7,0.3-22.9,3.2c-7.4,3-13.2,8.1-18.7,13.8c-5.3,5.5-10.7,11.6-18,14.5
			c-3.2,1.3-6.7,1.8-10.1,1.2c-1.8-0.3-3.5-0.8-5.1-1.6c-0.3-0.1-4.3-2.8-3.8-3.4C175.3,378.2,173.9,376.5,172.6,377.2L172.6,377.2z
			"/>
	</g>
</g>
<g>
	<g>
		<g>
			<path class="st0" d="M203.2,139.4c-6.7,10.5-11.1,23.9-4.5,35.5c5.7,10.1,17.1,16,28.5,16.4c11.7,0.4,22.9-5.5,30.1-14.7
				c7.8-10,10.2-23.2,7.3-35.5c-3-12.4-12-24.8-25.5-26.4c-12.5-1.5-24.2,7-30.5,17.1c-7,11.4-7.8,27.3,2.2,37.2
				c9.8,9.7,25.4,9,35.5,0.3c5.2-4.4,8.6-11,8.7-17.9c0.2-7.5-4.3-14-11.5-16.4c-13.3-4.6-30.5,5-31.1,19.6
				c-0.2,5.9,9.6,7.5,10.6,1.4c1.2-7.1,8.2-12.2,15.5-10.9c1.6,0.3,3.2,0.9,4.3,2.2c0.8,1,1.1,2.5,1.1,3.8c0,1.5-0.4,3.2-0.9,4.5
				c-0.8,2-2,3.5-3.5,5c-5.9,5.7-15.7,6.6-21.5,0.2c-6.1-6.7-4.3-16.7,0.2-23.8c4.2-6.7,12.1-12.7,20.2-11.8
				c8.5,0.9,14.1,10.2,16.5,17.7c2.8,8.9,2,18.8-3,26.8c-4.5,7.3-12,12.7-20.5,14c-9.6,1.5-20.2-2.3-26.2-10
				c-7.6-9.8-3.9-22.5,1.6-32.4C208.1,139.1,204.6,137.2,203.2,139.4L203.2,139.4z"/>
		</g>
		<g>
			<path class="st0" d="M197.5,137.5c-0.4-2.2-2.4-3.9-3.7-5.5s-2.8-4.2-4.7-5.1c-3.7-1.7-7.4,1.8-5.5,5.5c1,1.9,3.5,3.3,5.2,4.6
				s3.5,3.2,5.6,3.6C196.3,141,197.9,139.5,197.5,137.5L197.5,137.5z"/>
		</g>
		<g>
			<path class="st0" d="M226.3,111.4c0-3.9,0.9-8.6-0.7-12.2c-1.7-3.7-6.9-2.2-8,1.1c-1.2,3.5,0.9,8.6,2,12
				C220.6,116,226.3,115.5,226.3,111.4L226.3,111.4z"/>
		</g>
		<g>
			<path class="st0" d="M265.5,120.1c2.3-1.2,4.4-2.6,6.6-4c2.4-1.5,4.9-2.6,6.6-4.9c2.3-3.1-1.5-6.9-4.7-6.1c-2.7,0.7-5,3.2-7.1,5
				s-3.9,3.7-5.5,6C259.5,118.6,263.1,121.3,265.5,120.1L265.5,120.1z"/>
		</g>
		<g>
			<path class="st0" d="M271,170.9c3.1,2.3,7,3.7,10.5,5.2c2.5,1.1,5.3,0.5,6.5-2.2c1.1-2.5-0.3-5.4-2.9-6.1c-4-1.2-8.2-2.7-12.4-3
				C269,164.6,268.6,169.2,271,170.9L271,170.9z"/>
		</g>
		<g>
			<path class="st0" d="M255.7,191.4c-0.6,2.2,0.3,4.3,0.9,6.4c0.6,2.2,0.8,4.5,1.9,6.5c2.2,3.8,7.7,1.9,7.9-2.2
				c0.2-2.6-1.2-5.2-2.3-7.5c-1.1-2.2-2.4-4.3-4.8-5.2C257.8,188.8,256.1,190,255.7,191.4L255.7,191.4z"/>
		</g>
		<g>
			<path class="st0" d="M206.5,197.6c-0.7,1.2-1.1,2.6-1.8,3.8s-1.5,2.2-2.5,3.2c-3.3,3.4,1.8,8.4,5.1,5.1c3-2.9,5.1-8.2,3.1-12.2
				C209.5,196,207.3,196.2,206.5,197.6L206.5,197.6z"/>
		</g>
		<g>
			<path class="st0" d="M182.5,175.2c-2.6,0.5-5.4,0.9-7.9,1.8c-2,0.7-3.4,2.7-2.8,4.9c0.6,2.3,2.8,3.2,4.9,2.8
				c2.6-0.5,5.2-1.6,7.7-2.4C189,180.9,187.2,174.3,182.5,175.2L182.5,175.2z"/>
		</g>
	</g>
</g>
<g class="st1">
	<path class="st0" d="M135.4,227.2c0,0.6-0.2,1.1-0.6,1.8c-2.7,4.5-8.2,5.7-16.4,6.8c-0.2,0.1-0.6,0.1-1.1,0.1c-0.5,0-1,0-1.8-0.1
		c-2-0.1-3.4-0.1-4-0.1c-3.5,0-5.6,0.5-6.3,1.5c-1.4,2.1-2.1,6-2.1,11.6v0.3c0,3.7,0.6,12.4,0.7,12.6c0.7,14.5,1,23.2,1.1,26.3
		c0,0.6,0.1,1.6,0.2,3.1l0.2,3.5v0.9c0,4.8-1.1,7.5-6.8,7.8h-0.2c-2.8,0-2.9-2.1-4.1-9.3c-1.1-6.9-1.8-16.4-2-28.5v-5.9
		c0-5.2,0.1-11.8,0.2-20v-0.1c0-2.4-3.3-2.5-7.9-2.6h-0.2c-0.9,0-2.5,0.2-5,0.4c-3.3,0.4-5.6,0.7-7.2,0.8c-1.1,0.1-2.1,0.1-3,0.1
		c-4.4,0-7.1-0.9-8.2-2.5c-0.7-1.1-1-2.1-1-3.1c0-4.8,9.9-7,19.3-7.1c5.7-0.1,13.9-0.6,24.4-1.6c11.3-1,19.4-1.6,24.4-1.7
		C131.6,222.5,135.4,225,135.4,227.2z"/>
	<path class="st0" d="M142.3,271.1c0.5,1.7,0.7,3.2,0.7,4.6c0,4.2-2,7.6-5.9,10.2c-0.6,0.5-1.5,0.9-2.6,1.2c-2.4,0.9-3,1-3,2v0.1
		c0.1,0.6,0.5,1.3,1.4,2.3c1.9,2.1,4,3,6.5,3c0.7,0,1.4-0.1,2.2-0.2c3.1-0.7,6.3-2.9,9.4-6.6c4.2-4.9,6.8-7.8,7.9-8.6
		c2-1.4,3.5-2.1,4.4-2.1c1,0,1.5,0.7,1.5,2.2c-1.3,9-11.8,20.8-20.8,23.9c-1.6,0.3-3.2,0.5-4.8,0.5c-7.9,0-15.1-4.5-21.7-13.3
		c-2.3-3-3.4-7.2-3.4-12.5c0-2.2,0.2-4.7,0.6-7.4c0.7-4.8,4.5-7.9,11.4-9.4c0.9-0.2,1.8-0.3,2.8-0.3
		C134,260.5,138.8,263.8,142.3,271.1z M127.6,269.8c-2.1,0-3.4,1.9-3.4,5.1c0,3.6,1,6,2.8,7.4c3.4,0,5.7-2.6,6-5.9
		c0.1-0.3,0.1-0.5,0.1-0.8c0-2.6-1.4-5.3-4.8-5.8H127.6z"/>
	<path class="st0" d="M192.5,263.6c0,0.6-0.2,1.2-0.7,1.9c-0.9,1.2-3.2,2.6-6.9,4.4c-8.3,3.8-10.9,5.5-12.6,12.7
		c-0.4,1.8-0.8,5.1-1.1,9.9c-0.4,6.2-2.1,10.9-5.5,10.9c-0.6,0-1.2-0.2-1.9-0.5c-5.3-2.4-5.3-13.7-5.5-20.3l-0.2-6.1
		c-0.1-0.3-0.1-0.6-0.1-0.9c0-3.5,2-7.1,4.8-8.4c0.6-0.2,1.2-0.3,1.7-0.3c0.7,0,1.5,0.3,2.1,0.8c1.3,1,2,2.9,2.2,5.7
		c1.2-8,6.8-13.1,15-14.2c0.3-0.1,0.6-0.1,1-0.1C188.2,259.2,192.5,261.3,192.5,263.6z M220.1,259.1c3.1,0,6.7,2.6,6.7,5.1
		c0,0.3-0.1,0.6-0.2,1c-11,5.6-19.1,15.9-22.3,30.2c-1.1,5.2-2.8,7.8-4.9,7.8c-0.9,0-2-0.5-3-1.5c-5.5-5-8.5-16.7-8.7-26.5V275
		c0-2.8,2.5-5.2,5.2-5.2h0.1c3.2,0,5.7,3,6.2,9.5c2.2-8,12.3-20.2,20.7-20.2H220.1z"/>
	<path class="st0" d="M262.1,287.2c0.2,0.7,0.3,1.8,0.3,2.9c0,0.9-0.1,1.9-0.2,3c-0.3,3.1-0.9,5.3-2,6.8c-0.7,1-1.4,1.4-2.5,1.6
		l-0.2,0.1h-0.2c-0.2,0-0.3-0.1-0.6-0.1c-2.7-0.5-4.4-3.2-4.9-8.2c-0.1-1.1-0.1-2.1-0.1-3.3c0-1.2,0-2.5,0.1-3.9l-1-0.4
		c-0.6,0.7-1.4,2-2.5,3.7c-3.9,6.1-7.5,9.5-10.9,10.7c-1.1,0.3-2,0.5-3,0.6c-0.3,0.1-0.5,0.1-0.9,0.1c-4.5,0-7.8-3.9-8.2-8.7
		c-0.1-0.4-0.1-0.9-0.1-1.3c0-1.3,0.2-2.5,0.5-4c2-9.2,13.4-20.5,23.5-21.5c0.5-0.1,1-0.1,1.6-0.1c0.8,0,1.5,0.1,2.2,0.2
		c4.6,0.6,6.5,7.4,8.3,18.2L262.1,287.2z M235.5,288.8c4.7,0,11.1-7.6,13.3-12.9c-0.1-0.6-1-0.8-1.5-0.8c-1.9,0.1-4.5,1.4-7.5,4.1
		c-3.1,2.6-5,5.1-5.6,7.2c-0.1,0.2-0.1,0.5-0.1,0.8c0,0.5,0.2,1.3,1,1.6H235.5z M311.4,297.6c0,0.9-0.4,1.8-1.2,2.9
		c-1.1,1.4-4.5,2.2-10.2,2.3h-0.9c-1.6,0-3.4-0.1-5.7-0.2l-4.8-0.2c-2,0-4.8-0.2-8.5-0.6c-3.9-0.5-6.6-0.6-8.5-0.7
		c-5.1-0.1-7.8-1.3-7.8-3.7c0-0.6,0.2-1.4,0.7-2.3c1.6-3,4.4-5.8,8.7-8.5l5.4-3c2.5-1.4,4.4-2.4,5.6-3.2c4.3-2.6,7.6-5.2,10-7.7
		c-0.5,0.1-2.4,0.3-5.6,0.7c-3.2,0.5-5.8,0.7-7.9,0.9c-1.4,0.1-2.8,0.1-3.9,0.1c-4.4,0-7-0.7-7.8-2.2c-0.6-1.1-0.9-2.2-0.9-3.2
		c0-2.9,3-5.5,7.2-5.5c0.6,0,1.1,0,1.7,0.1c1.2,0.1,2.6,0.2,4.1,0.2c3.2,0,7-0.3,11.3-1.1c7.1-1.2,12.2-1.8,15.1-1.8h0.5
		c3.7,0.7,5.6,2.2,5.6,4.4c0,5.6-11.6,14.3-22.2,21.4c-5.1,3.4-7.6,5.1-7.5,5.1c0.9,0.1,3.4,0.3,7.5,0.4
		C300.9,292.8,311.4,293.1,311.4,297.6z M360.5,298.3c-0.5,2.3-3.4,4.4-6,4.4c-1,0-1.8-0.3-2.6-1c-1.6-1.4-3.1-4.4-4.7-9.2
		c-1.3-4.4-2.7-7.4-4.3-8.6l-3,5.9c-3.7,5.7-7,9.9-15.2,12.8c-1,0.3-1.9,0.3-2.8,0.3c-4.9,0-8.3-3.4-8.6-9.1c0-6,3.8-13.4,11.4-22
		c9.9-10.6,17-11.8,21.7-11.8h0.4c3.2,0,4.7,6.3,5.8,15.6l0.5,3.1c0-0.1,0.2,0.7,0.4,2.1c0.7,3.6,1.4,6.3,2.3,8
		c0.3,0.6,0.9,1.7,2.1,3.2C359.6,294.5,360.5,296.6,360.5,298.3z M339.1,272.2c-0.1-0.2-0.7-0.5-1.3-0.5c-1.2,0-2.8,1.1-4.3,2.7
		c-4.5,5.1-9.7,15.1-9.4,17.8C330.3,291.8,339.2,278.9,339.1,272.2z"/>
	<path class="st0" d="M378.3,260.5c3.1,0,5.8,1.8,6.7,3.9c0.2,0.5,0.3,0.9,0.3,1.3c0,0.6-0.2,1.2-0.5,1.8c-0.7,1-2,1.8-3.9,2.2
		c-9.3,1.5-10.8,1.6-10.8,3.3c0,0.3,0.1,0.6,0.3,0.9l0.3,0.3c1.3,0.3,7.6,2.6,19.1,6.8c4.3,1.6,7.1,3.3,8.7,5.3
		c1,1.3,1.6,2.8,1.6,4.3c0,1.4-0.4,2.9-1.2,4.5c-1.8,3.4-9.5,6.5-18.1,7.7c-2.6,0.3-4.9,0.6-7,0.6c-3,0-9.2-0.2-10.5-3.6
		c-0.7-1.7-1-3.2-1-4.5c0-2.1,0.8-5,3.5-5c0.7,0,1.5,0.2,2.3,0.6c4,1.7,7.4,2.5,10.3,2.5c3.1,0,8.9-0.5,10.8-2.4
		c-11.9-5.7-30-9.5-30-16c-0.1-0.6-0.1-1.2-0.1-1.7c0-7.9,9.9-12.9,18.5-12.9H378.3z"/>
</g>
</svg>
