<?xml version="1.0" encoding="utf-8"?>
<!-- Generator: Adobe Illustrator 22.0.1, SVG Export Plug-In . SVG Version: 6.00 Build 0)  -->
<svg version="1.1" id="Capa_1" fill="#fff" xmlns="http://www.w3.org/2000/svg" xmlns:xlink="http://www.w3.org/1999/xlink" x="0px" y="0px"
	 viewBox="0 0 100 98.7" style="enable-background:new 0 0 100 98.7;" xml:space="preserve">
<title>05</title>
<g>
	<polygon points="50.2,49.4 39.4,34.4 31.3,40.2 49.3,65.1 95.8,15 88.5,8.2 	"/>
	<path d="M83.5,43c0.5,2.3,0.7,4.6,0.7,7c0,19.3-15.7,35-35,35c-19.3,0-35-15.7-35-35c0-19.3,15.7-35,35-35c5.8,0,11.5,1.4,16.6,4.2
		l4.8-8.8C48.7-1.4,21.4,6.8,9.6,28.6S6,77.8,27.8,89.6s49.2,3.7,61-18.2c3.5-6.6,5.4-13.9,5.4-21.4c0-3-0.3-6-0.9-9L83.5,43z"/>
</g>
</svg>
