<?xml version="1.0" encoding="utf-8"?>
<!-- Generator: Adobe Illustrator 22.0.1, SVG Export Plug-In . SVG Version: 6.00 Build 0)  -->
<svg version="1.1" id="Layer_1" xmlns="http://www.w3.org/2000/svg" xmlns:xlink="http://www.w3.org/1999/xlink" x="0px" y="0px"
	 viewBox="0 0 461.9 459.3" style="enable-background:new 0 0 461.9 459.3;" xml:space="preserve">
<style type="text/css">
	.st0{fill:#FFFFFF;}
</style>
<g>
	<g>
		<g>
			<path class="st0" d="M219.1,348.9c1.7,6.5,3.1,11.1,4.1,13.7c0,2.7-1.1,3.9-3.1,3.9c-0.7,0-1.4-0.2-2.4-0.5
				c-7.6-2.1-9.9-5.6-13-17.6c-2.1-7.4-3-11.9-4.9-11.9c-1.3,0-2.4,2.6-3.6,7c-2.4,8.3-6.5,23-14.1,23.3H182
				c-5.6,0-8.9-27.9-8.9-27.9c-0.6-3.5-1.7-5.9-3.2-5.9c-0.2,0-0.5,0.1-0.8,0.2c0.1,0.2-2.6,7.7-7.9,22.6c-1.7,4.8-3.5,7.8-5.3,9.2
				c-1.1,0.8-2.1,1.1-3.1,1.1c-5.9,0-6.5-2.5-6.2-5.7c1.5-11.7,3.9-12.2,1.8-21.7l-0.8-3.5c-0.3-1.4,0.4-2.9,1.1-4.3
				c1-1.9,1.5-3.6,1.5-5.1c0-1.6,1-2.4,3.1-2.6c7.8-0.5,7.6-3,9.1-4.9c3.1-3.9,4.8-5.8,7.8-5.8c1.3,0,2.6,0.5,4.3,1.4
				c2.1,1.2,4,5.2,5.8,12.3c2.3,8.9,3.6,13.6,3.9,14.2h1.4c0.5-1.1,2.3-6.8,5.2-17.3c2.1-7.1,4.5-11.2,7.3-12.6
				C211.2,312.9,215.1,333.4,219.1,348.9z"/>
		</g>
		<g>
			<path class="st0" d="M272.2,333.1c0,10-13.4,24-26.6,26.6c-2.4,0.5-3.3,0.8-3.9,1.7h-0.1c-0.1,0.1-0.2,0.9-0.2,2.1
				c0,0.6,0,1.2,0.1,2.1c0.2,2.1,0.3,3.7,0.3,5.1v1.9c0,2.2,0.6,11.9,1.4,18.8c0.1,0.5,0.1,0.8,0.1,1.2c0,2.7-1.7,4.9-5.4,4.9
				c-4.6,0-7.5-2.1-9.3-13.2c-0.4-3.1-0.6-7.5-0.6-8.9v-5.4c-0.5-14.8-2.2-21.4-2.2-30.4c0-9.3,0.2-15.7,0-18.9
				c0.3-4.4,0.9-7.2,2.3-8.9c0.9-1.2-0.8-1.5,2.9-1.5h1.5c14.6,0,33.9,6.7,38.4,17.4C271.8,329.6,272.2,331.3,272.2,333.1z
				 M257.3,331.8c0-1.5-0.6-3-1.3-3.7c-1.7-2.1-5.8-3-9-3.7c-1.4-0.2-2.5-0.4-3.6-0.4c-1.1,0-1.8,0.1-2.7,0.5h0.3
				c-0.3,0.5-0.6,2.7-0.6,5.6c0,2.3,0.2,5.3,0.5,8.8c0.2,3.4,0.5,5.7,0.5,7.2v0.6c6.8-0.8,14.7-6.5,15.8-13.9
				C257.2,332.7,257.3,332.3,257.3,331.8z"/>
		</g>
		<g>
			<path class="st0" d="M374.7,266.9c0.5,0,0.8,0.2,1.7,1c1.1,1.1,1.9,5.6,1.9,12.2c0,3.9-0.2,8.7-0.7,14.3
				c-0.7,7.4-0.6,8.1-0.6,12.2v6.4c0,0.4,1.6,0.8,4,0.8c0.5,0,1,0,1.6-0.1h-0.1c3.4-0.2,7.6-0.8,12.5-1.7h0.1l1.5-0.5
				c3.2-0.8,5.3-1.1,6.8-1.1c2.3,0,3.5,0.5,4.4,2.4c0.5,0.9,0.8,2.2,0.8,3.3c0,0.8-0.2,1.8-0.5,2.3c-2.9,6-11.9,6.6-26.8,7.8
				l-2.1,0.2h-0.7c-0.1,0.5-0.2,1.1-0.2,2.1c-0.2,3.1-0.3,5.3-0.3,7v1.7c0.4,3.8,0.7,8.7,0.8,14.6v2.4c0,7.9-1,12.7-1.6,12.9h-0.4
				c-0.2,0.5-0.3,0.3-2.1,0.3c-4.3,0-5.9,0-6.4-0.5c-2.7-2.6-4.3-9.4-4.3-19.2c0-3,0.2-6.4,0.4-10c0.1-0.8,0.1-1.3,0.1-2
				c0-5.9-1.7-8.2-9.4-8.2h-1c-0.6,0.1-1.1,0.1-1.5,0.1c-4.6,0-7.8-0.5-10-6h0.1v-0.4c0-1.4,0.5-2.7,1.1-3.3
				c2.1-2.2,5.4-3.1,10.5-3.1c1.1,0,2.1,0.1,3,0.2c0.6,0.1,1.3,0.2,1.9,0.2c1.5,0,3.1-0.4,4.2-0.8h0.5c-0.4-4.6-0.6-9.3-0.6-13.8
				c0-3.5,0.1-7.1,0.4-10.3c0.8-10.4,2.9-17.6,5.7-20.7c1.7-1.9,3.1-2.5,4.9-2.5H374.7z"/>
		</g>
		<g>
			<path class="st0" d="M339.2,306.3c2.5,0,5.5,2.2,5.5,4.2c0,0.2,0,0.5-0.1,0.8c-9.1,4.6-15.8,13.1-18.3,24.9
				c-0.9,4.3-2.3,6.4-4,6.4c-0.8,0-1.6-0.4-2.5-1.2c-4.5-4.1-6.8-16.5-6.8-25.2c0.4-1.8,1.1-3,2-3.7c0.4-0.3,0.9-0.4,1.3-0.4
				c0.5,0,1,0.1,1.6,0.5c2.4,1.5,3.8,5,4.2,10.4C323.9,316.2,332.1,306.3,339.2,306.3L339.2,306.3z"/>
		</g>
		<g>
			<path class="st0" d="M312.9,344.5c-0.4,1.9-2.8,3.6-5,3.6c-0.9,0-1.5-0.2-2.2-0.9c-1.3-1.2-2.6-3.6-3.8-7.6
				c-1.1-3.6-2.2-6.1-3.5-7.1l-2.5,4.9c-3.1,4.7-5.7,8.2-12.5,10.5c-0.9,0.3-1.6,0.3-2.3,0.3c-4.1,0-6.8-2.8-7.1-7.5
				c0-5,3.1-11,9.4-18.1c8.1-6.6,13.9-9.7,17.8-9.7h0.3c2.6,0,3.8,5.2,4.8,12.8l0.4,2.6c0,0,0.1,0.6,0.3,1.7
				c0.6,2.9,1.2,5.2,1.9,6.6c0.2,0.5,0.8,1.4,1.7,2.6C312.2,341.4,312.9,343.2,312.9,344.5z M295.3,323.1c-0.1-0.1-0.6-0.4-1-0.4
				c-1,0-2.3,0.9-3.5,2.2c-3.7,4.2-7.9,12.4-7.8,14.6C288,339.2,295.4,328.6,295.3,323.1z"/>
		</g>
		<g>
			<path class="st0" d="M418.4,333c0.4,1.4,0.6,2.6,0.6,3.8c0,3.5-1.6,6.2-4.9,8.4c-0.5,0.4-1.2,0.7-2.1,1c-2,0.7-2.5,0.9-2.5,1.6v0
				c0,0.5,0.4,1.1,1.1,1.9c1.6,1.7,3.3,2.5,5.3,2.5c0.6,0,1.1,0,1.8-0.2c2.6-0.6,5.2-2.4,7.8-5.4c3.4-4,5.6-6.4,6.5-7.1
				c1.7-1.2,2.8-1.8,3.6-1.8c0.9,0,1.2,0.6,1.2,1.8c-1,7.4-9.7,17.1-17.1,19.6c-1.3,0.3-2.6,0.4-3.9,0.4c-6.5,0-12.4-3.7-17.9-11
				c-1.9-2.5-2.8-6-2.8-10.3c0-1.8,0.1-3.9,0.5-6.1c0.6-3.9,3.7-6.5,9.4-7.8c0.8-0.2,1.5-0.3,2.3-0.3
				C411.6,324.3,415.6,327,418.4,333z M406.3,331.9c-1.7,0-2.8,1.6-2.8,4.2c0,2.9,0.8,5,2.3,6.1c2.8,0,4.7-2.2,4.9-4.8
				c0-0.2,0-0.4,0-0.7c0-2.1-1.1-4.4-3.9-4.8H406.3z"/>
		</g>
		<g>
			<path class="st0" d="M132.6,316.2c7,0,11.6,5.8,11.6,14.6c0,10.4-6.3,20.7-15.7,20.7c-0.9,0-1.9-0.1-2.9-0.3
				c-7.4-1.5-9.8-9.4-9.8-16.4c0-0.9,0-1.8,0.1-2.7c0.7-9.6,7.1-15.9,16.1-15.9H132.6z M125.6,329.1c-0.9,1.5-1.2,3.3-1.2,5.2v0.5
				c0.1,4.5,2.2,7.8,4.5,7.8c2.7,0,6.6-4,6.9-9.8c0-0.5,0-0.9,0-1.2c0-2.4-0.5-4.4-1.7-6.3c-0.7-1-1.5-1.6-2.6-1.6
				C129,323.8,125.9,326.9,125.6,329.1z"/>
		</g>
		<g>
			<path class="st0" d="M104.7,295.9c3.4,2.2,6,5.8,5.4,9.5c-0.1,0.5-0.3,1.1-0.5,1.5c-1.5,2.9-5.7,4.1-12.9,3.4l-4.1-0.4
				c-22.3-2.2-32.9,1.9-42.5,8.2c-4.9,3.2-8.3,6.8-10.4,10.7c-0.4,0.7-0.6,1.4-1,2.2c-4.4,11.5,4.5,24.5,17.5,31.3
				c10.3,5.4,21.2,7.3,32.4,5.6c0.5,0,1.5-0.3,3-0.8c24-6.8,38-9.1,41.3-7.4c0.8,0.4,1.1,0.9,0.9,1.9c-0.1,0.7-0.4,1.5-0.9,2.3
				c-4.7,9-29.6,18.3-51.4,18.8c-12.4,0.3-23.5-2.2-33.8-7.6c-15.6-8.2-28.2-24.8-23.9-43.5c0.7-2.9,1.8-5.7,3.3-8.6
				c1.8-3.3,4-6.6,6.9-9.6c18.2-20.3,50.8-28,69.6-18.2C104,295.4,104.4,295.6,104.7,295.9z"/>
		</g>
	</g>
	<g>
		<g>
			<path class="st0" d="M76.7,189.8c0.5,1.7,0.7,3.3,0.7,4.7c0,4.3-2,7.8-6.1,10.5c-0.7,0.5-1.5,0.9-2.7,1.2c-2.5,0.9-3.1,1.1-3.1,2
				v0.1c0.1,0.6,0.5,1.4,1.4,2.4c2,2.1,4.1,3.1,6.7,3.1c0.7,0,1.4-0.1,2.3-0.2c3.2-0.7,6.5-3,9.7-6.8c4.3-5,7-8,8.2-8.9
				c2.1-1.5,3.6-2.2,4.6-2.2c1.1,0,1.5,0.8,1.5,2.3c-1.3,9.3-12.2,21.4-21.4,24.6c-1.7,0.4-3.3,0.5-4.9,0.5
				c-8.1,0-15.6-4.6-22.4-13.7c-2.4-3.1-3.5-7.5-3.5-12.8c0-2.3,0.2-4.9,0.6-7.6c0.8-4.9,4.7-8.2,11.8-9.7c0.9-0.2,1.9-0.4,2.8-0.4
				C68.1,178.9,73.1,182.4,76.7,189.8z M61.5,188.5c-2.2,0-3.6,2-3.6,5.3c0,3.7,1,6.2,2.8,7.6c3.6,0,5.9-2.7,6.2-6
				c0.1-0.3,0.1-0.5,0.1-0.8c0-2.7-1.4-5.5-4.9-6H61.5z"/>
		</g>
		<g>
			<path class="st0" d="M236.9,177.6c0.5,1.7,0.7,3.3,0.7,4.7c0,4.3-2,7.8-6.1,10.5c-0.7,0.5-1.5,0.9-2.7,1.2
				c-2.5,0.9-3.1,1.1-3.1,2v0.1c0.1,0.6,0.5,1.4,1.4,2.4c2,2.1,4.1,3.1,6.7,3.1c0.7,0,1.4-0.1,2.3-0.2c3.2-0.7,6.5-3,9.7-6.8
				c4.3-5,7-8,8.2-8.9c2.1-1.5,3.6-2.2,4.6-2.2c1.1,0,1.5,0.8,1.5,2.3c-1.3,9.3-12.2,21.4-21.4,24.6c-1.7,0.4-3.3,0.5-4.9,0.5
				c-8.1,0-15.6-4.6-22.4-13.7c-2.4-3.1-3.5-7.5-3.5-12.8c0-2.3,0.2-4.9,0.6-7.6c0.8-4.9,4.7-8.2,11.8-9.7c0.9-0.2,1.9-0.4,2.8-0.4
				C228.3,166.7,233.3,170.1,236.9,177.6z M221.7,176.2c-2.2,0-3.6,2-3.6,5.3c0,3.7,1,6.2,2.8,7.6c3.6,0,5.9-2.7,6.2-6
				c0.1-0.3,0.1-0.5,0.1-0.8c0-2.7-1.4-5.5-4.9-6H221.7z"/>
		</g>
		<g>
			<path class="st0" d="M402.5,166.7c8.8,0,14.5,7.2,14.5,18.3c0,13.1-7.9,25.9-19.7,25.9c-1.2,0-2.4-0.1-3.6-0.4
				c-9.3-1.8-12.3-11.7-12.3-20.5c0-1.1,0.1-2.3,0.1-3.4c0.9-12.1,8.9-19.9,20.2-19.9H402.5z M393.6,182.9c-1.1,1.9-1.5,4.1-1.5,6.6
				v0.7c0.1,5.6,2.7,9.8,5.6,9.8c3.4,0,8.2-5,8.7-12.3c0.1-0.6,0.1-1.1,0.1-1.5c0-3-0.7-5.6-2.1-7.9c-0.8-1.2-1.8-2-3.3-2
				C398,176.2,394,180,393.6,182.9z"/>
		</g>
		<g>
			<path class="st0" d="M339.2,220.5c-0.6,3-4.6,5.9-8,5.9c-1.4,0-2.4-0.4-3.5-1.4c-2.1-1.9-4.1-5.9-6.2-12.2
				c-1.7-5.9-3.6-9.7-5.7-11.4l-4,7.8c-4.9,7.6-9.2,13.1-20.1,16.9c-1.4,0.5-2.5,0.5-3.6,0.5c-6.5,0-10.9-4.6-11.4-12.1
				c0-8,5-17.7,15.1-29.1c13.1-10.6,22.4-15.6,28.7-15.6h0.5c4.3,0,6.2,8.4,7.7,20.6l0.6,4.1c0-0.1,0.2,0.9,0.5,2.7
				c1,4.7,1.9,8.4,3,10.6c0.4,0.8,1.2,2.3,2.7,4.3C338.1,215.5,339.2,218.3,339.2,220.5z M311,186c-0.2-0.2-1-0.6-1.7-0.6
				c-1.6,0-3.6,1.4-5.6,3.6c-6,6.7-12.8,20-12.5,23.5C299.2,211.9,311,194.9,311,186z"/>
		</g>
		<g>
			<path class="st0" d="M372.9,164.9c2.8,6.7,5.4,17.3,7.5,31.7c0.8,5.2,1.4,9,1.9,11.6c0.2,0.9,0.5,2.4,1.1,4.6
				c0.9,3.6,1.4,6.4,1.4,8.7c0,3.4-1.1,5.3-5.1,5.3c-0.9,0-1.7-0.1-2.8-0.3c-5.4-0.9-7.6-11.6-10.1-31c-0.9-6.6-1.6-10.9-2.1-12.8
				l-1.2-0.3c-10.9,8-14.2,16.5-14.4,28.4c0,4.8-4.9,13.8-9.2,13.8c-3.7,0-6.6-4.9-6.6-13.1c0-3.9,0.5-8.7,1.3-14.5
				c0.8-5.1,1.1-8.7,1.1-10.6c0.1-7,3.7-9.5,7.3-9.5c1.6,0,5.3,0.5,5.6,2.2l1.3,0.4c1.3-1.4,2.9-3.4,4.6-6.4
				c3.6-5.4,4.5-6.6,7.9-8.7c2.5-1.5,4.4-2.2,6.2-2.2C370.7,162.1,372,162.9,372.9,164.9z"/>
		</g>
		<g>
			<path class="st0" d="M287.5,165.4c3.1,0,6.9,2.8,6.9,5.2c0,0.3-0.1,0.7-0.2,0.9c-11.4,5.8-19.8,16.5-23,31.2
				c-1.2,5.4-2.8,8.1-5,8.1c-0.9,0-2-0.5-3.1-1.5c-5.6-5.1-8.5-20.7-8.5-31.6c0.5-2.2,1.4-3.8,2.5-4.6c0.5-0.4,1.1-0.5,1.7-0.5
				c0.7,0,1.3,0.2,2,0.6c3,1.8,4.7,6.2,5.2,13.1C268.3,177.9,278.7,165.4,287.5,165.4L287.5,165.4z"/>
		</g>
		<g>
			<path class="st0" d="M204.7,155.9c2.1,0.2,3.6,1.2,4.6,2.9c0.5,1,0.8,2.4,0.8,4.1c0,6.2-3.7,17-11.3,32.5c-1.7,3.6-2.7,5.9-3,6.6
				l-0.5,1.5c-4.8,14.5-10,25.6-19.5,25.6c-0.4,0-0.7,0-1-0.1c-7.4-0.6-11.6-8.9-16.5-21.2c-1.5-3.8-1.7-4.6-3.6-8.6
				c-3.4-7.4-5.6-12.9-6.7-16.6c-1-3.4-1.5-6.2-1.5-8.6c0-4.3,1.6-8.4,8.5-8.4c0.9,0,2,0.1,3.3,0.3c3.1,1.8,7.6,10.6,13.4,26.3
				c2.3,6.5,4,10.6,4.9,12.5c2.3-2.5,5.2-9.6,8.7-21.2c5.6-18.6,9.6-27.9,17.2-27.9C203.1,155.7,203.9,155.8,204.7,155.9z"/>
		</g>
		<g>
			<path class="st0" d="M104,145c1.4,1.5,2.3,6.5,2.3,13.7c0,3.7-0.2,8.3-0.7,13.4c-0.1,1.7-0.2,2.8-0.2,3.1
				c-0.1,2.1-0.2,4.2-0.2,6.3c0,9.4,1,19.4,2.9,29.8c0.3,1.5,0.4,3.1,0.4,4.4c0,2.7-0.6,4.9-1.7,6.1c-0.8,1-1.4,1.3-2.3,1.3
				c-0.9,0-2-0.4-3.6-1.4c-2.7-1.7-4.7-9.8-5.4-23.4c-0.1-2.1-0.2-3.6-0.3-4.3c-0.4-4.5-0.6-9.2-0.6-13.9v-2.5
				c0-10.7,0.5-21.1,1.6-31.3v-0.4h-0.3l0.3-0.2c2.1-1.2,3.8-1.8,5.6-1.8C102.6,144,103.2,144.2,104,145z"/>
		</g>
	</g>
	<g>
		<g>
			<path class="st0" d="M186,424.2c-3.1,1.6-0.7,5.1,1,6.8c2.4,2.4,5.7,4,9.1,4.7c8.2,1.5,16-1.9,22.4-6.8c7.3-5.6,13-13.2,20.9-18
				c8-4.9,17.6-6.2,26.8-5.2c-0.3-2.3-0.6-4.7-1-7c-7.2,1.9-15.1,5.4-20.2,10.9c-5.4,5.8-3,14.1,3.3,18.1c6.6,4.3,16.4,3.6,23.9,3.2
				c9.1-0.5,18.3-1.8,27.2-3.7c4.6-0.9,3.6-8.9-1.1-8.3c-13.3,1.8-27.1,5-40.6,3.7c-3.9-0.4-11.3-3.7-6.7-8.3
				c4.2-4.2,10.5-7,16.1-8.7c4-1.2,3-6.7-1-7c-7.8-0.6-15.7,0.3-22.9,3.2c-7.4,3-13.2,8.1-18.7,13.8c-5.3,5.5-10.7,11.6-18,14.5
				c-3.2,1.3-6.7,1.8-10.1,1.2c-1.8-0.3-3.5-0.8-5.1-1.6c-0.3-0.1-4.3-2.8-3.8-3.4C188.7,425.2,187.3,423.5,186,424.2L186,424.2z"/>
		</g>
	</g>
	<g>
		<g>
			<g>
				<path class="st0" d="M214.7,66.4c-6.7,10.5-11.1,23.9-4.5,35.5c5.7,10.1,17.1,16,28.5,16.4c11.7,0.4,22.9-5.5,30.1-14.7
					c7.8-10,10.2-23.2,7.3-35.5c-3-12.4-12-24.8-25.5-26.4c-12.5-1.5-24.2,7-30.5,17.1c-7,11.4-7.8,27.3,2.2,37.2
					c9.8,9.7,25.4,9,35.5,0.3c5.2-4.4,8.6-11,8.7-17.9c0.2-7.5-4.3-14-11.5-16.4c-13.3-4.6-30.5,5-31.1,19.6
					c-0.2,5.9,9.6,7.5,10.6,1.4c1.2-7.1,8.2-12.2,15.5-10.9c1.6,0.3,3.2,0.9,4.3,2.2c0.8,1,1.1,2.5,1.1,3.8c0,1.5-0.4,3.2-0.9,4.5
					c-0.8,2-2,3.5-3.5,5c-5.9,5.7-15.7,6.6-21.5,0.2c-6.1-6.7-4.3-16.7,0.2-23.8c4.2-6.7,12.1-12.7,20.2-11.8
					c8.5,0.9,14.1,10.2,16.5,17.7c2.8,8.9,2,18.8-3,26.8c-4.5,7.3-12,12.7-20.5,14c-9.6,1.5-20.2-2.3-26.2-10
					c-7.6-9.8-3.9-22.5,1.6-32.4C219.6,66.1,216.1,64.2,214.7,66.4L214.7,66.4z"/>
			</g>
			<g>
				<path class="st0" d="M209,64.5c-0.4-2.2-2.4-3.9-3.7-5.5c-1.3-1.6-2.8-4.2-4.7-5.1c-3.7-1.7-7.4,1.8-5.5,5.5
					c1,1.9,3.5,3.3,5.2,4.6c1.7,1.3,3.5,3.2,5.6,3.6C207.8,68,209.4,66.5,209,64.5L209,64.5z"/>
			</g>
			<g>
				<path class="st0" d="M237.8,38.4c0-3.9,0.9-8.6-0.7-12.2c-1.7-3.7-6.9-2.2-8,1.1c-1.2,3.5,0.9,8.6,2,12
					C232.1,43,237.8,42.5,237.8,38.4L237.8,38.4z"/>
			</g>
			<g>
				<path class="st0" d="M277,47.1c2.3-1.2,4.4-2.6,6.6-4c2.4-1.5,4.9-2.6,6.6-4.9c2.3-3.1-1.5-6.9-4.7-6.1c-2.7,0.7-5,3.2-7.1,5
					c-2.1,1.8-3.9,3.7-5.5,6C271,45.6,274.6,48.3,277,47.1L277,47.1z"/>
			</g>
			<g>
				<path class="st0" d="M282.5,97.9c3.1,2.3,7,3.7,10.5,5.2c2.5,1.1,5.3,0.5,6.5-2.2c1.1-2.5-0.3-5.4-2.9-6.1
					c-4-1.2-8.2-2.7-12.4-3C280.5,91.6,280.1,96.2,282.5,97.9L282.5,97.9z"/>
			</g>
			<g>
				<path class="st0" d="M267.2,118.4c-0.6,2.2,0.3,4.3,0.9,6.4c0.6,2.2,0.8,4.5,1.9,6.5c2.2,3.8,7.7,1.9,7.9-2.2
					c0.2-2.6-1.2-5.2-2.3-7.5c-1.1-2.2-2.4-4.3-4.8-5.2C269.3,115.8,267.6,117,267.2,118.4L267.2,118.4z"/>
			</g>
			<g>
				<path class="st0" d="M218,124.6c-0.7,1.2-1.1,2.6-1.8,3.8c-0.7,1.2-1.5,2.2-2.5,3.2c-3.3,3.4,1.8,8.4,5.1,5.1
					c3-2.9,5.1-8.2,3.1-12.2C221,123,218.8,123.2,218,124.6L218,124.6z"/>
			</g>
			<g>
				<path class="st0" d="M194,102.2c-2.6,0.5-5.4,0.9-7.9,1.8c-2,0.7-3.4,2.7-2.8,4.9c0.6,2.3,2.8,3.2,4.9,2.8
					c2.6-0.5,5.2-1.6,7.7-2.4C200.5,107.9,198.7,101.3,194,102.2L194,102.2z"/>
			</g>
		</g>
	</g>
	<g>
		<g>
			<path class="st0" d="M196.2,252.3c2.4,0,4.5,1.4,5.2,3c0.2,0.4,0.2,0.7,0.2,1c0,0.5-0.1,0.9-0.4,1.4c-0.5,0.8-1.6,1.4-3,1.7
				c-7.2,1.2-8.4,1.3-8.4,2.6c0,0.3,0.1,0.5,0.2,0.7l0.3,0.2c1,0.3,5.9,2,14.9,5.3c3.3,1.3,5.5,2.6,6.7,4.1c0.8,1,1.3,2.1,1.3,3.3
				c0,1.1-0.3,2.2-0.9,3.5c-1.4,2.7-7.4,5-14.1,6c-2,0.3-3.8,0.4-5.5,0.4c-2.4,0-7.1-0.1-8.2-2.8c-0.5-1.3-0.8-2.5-0.8-3.5
				c0-1.6,0.6-3.9,2.7-3.9c0.5,0,1.2,0.2,1.8,0.4c3.1,1.3,5.8,2,8,2c2.4,0,6.9-0.4,8.4-1.8c-9.2-4.4-23.3-7.4-23.3-12.4
				c0-0.4-0.1-0.9-0.1-1.3c0-6.1,7.7-10,14.4-10H196.2z"/>
		</g>
		<g>
			<path class="st0" d="M250.9,258.2c-0.4,2-1.1,3.8-1.8,5.2c-2.3,4.4-6.3,6.9-11.9,7.5c-0.9,0.1-2.1,0.1-3.4-0.2
				c-3-0.4-3.7-0.6-4.2,0.4l0,0.1c-0.3,0.6-0.2,1.7,0.2,3.2c0.9,3.2,2.6,5.5,5.2,6.8c0.7,0.4,1.5,0.7,2.4,1c3.7,1,8.2,0.4,13.6-1.8
				c7.2-2.8,11.5-4.4,13.2-4.7c2.9-0.4,4.8-0.3,5.9,0.2c1.1,0.6,1.2,1.6,0.3,3.2c-6.3,8.8-24,15.4-35.2,13.7
				c-1.9-0.5-3.7-1.2-5.3-2.1c-8.3-4.4-13.5-13.1-15.6-26.2c-0.7-4.5,0.4-9.5,3.3-15.1c1.2-2.4,2.8-4.9,4.7-7.5
				c3.4-4.6,9.2-5.9,17.3-3.6c1.1,0.3,2.1,0.7,3.1,1.2C247.9,242.4,251.2,248.6,250.9,258.2z M236,248.7c-2.3-1.2-4.7,0.1-6.5,3.5
				c-2,3.8-2.3,6.9-1.2,9.3c3.7,1.9,7.5,0.4,9.6-2.9c0.2-0.3,0.3-0.5,0.5-0.8c1.4-2.7,1.5-6.4-1.8-8.8L236,248.7z"/>
		</g>
	</g>
</g>
</svg>
